<svg width="386" height="386" viewBox="0 0 386 386" fill="none" xmlns="http://www.w3.org/2000/svg">
<path d="M152.155 22.218C171.328 -7.40578 214.672 -7.40579 233.845 22.218C244.819 39.1743 265.129 47.5868 284.879 43.357C319.384 35.9673 350.033 66.6162 342.643 101.121C338.413 120.871 346.826 141.18 363.782 152.155C393.406 171.328 393.406 214.672 363.782 233.845C346.826 244.82 338.413 265.129 342.643 284.879C350.033 319.384 319.384 350.033 284.879 342.643C265.129 338.413 244.819 346.826 233.845 363.782C214.672 393.406 171.328 393.406 152.155 363.782C141.18 346.826 120.871 338.413 101.121 342.643C66.616 350.033 35.9672 319.384 43.3569 284.879C47.5867 265.129 39.1742 244.82 22.2179 233.845C-7.40591 214.672 -7.40591 171.328 22.2179 152.155C39.1742 141.18 47.5867 120.871 43.3569 101.121C35.9672 66.6161 66.616 35.9673 101.121 43.357C120.871 47.5868 141.18 39.1743 152.155 22.218Z" fill="url(#paint0_radial_527_450)"/>
<path d="M152.575 22.4901C171.551 -6.82871 214.449 -6.82872 233.425 22.4901C244.512 39.621 265.031 48.1201 284.984 43.8467C319.133 36.5331 349.467 66.8665 342.153 101.016C337.88 120.969 346.379 141.488 363.51 152.575C392.829 171.551 392.829 214.449 363.51 233.425C346.379 244.512 337.88 265.031 342.153 284.984C349.467 319.134 319.133 349.467 284.984 342.153C265.031 337.88 244.512 346.379 233.425 363.51C214.449 392.829 171.551 392.829 152.575 363.51C141.488 346.379 120.969 337.88 101.016 342.153C66.8663 349.467 36.533 319.134 43.8466 284.984C48.12 265.031 39.6209 244.512 22.49 233.425C-6.82883 214.449 -6.82884 171.551 22.49 152.575C39.6209 141.488 48.12 120.969 43.8466 101.016C36.533 66.8665 66.8663 36.5331 101.016 43.8467C120.969 48.1201 141.488 39.621 152.575 22.4901Z" stroke="#7A7A7A" stroke-opacity="0.2"/>
<defs>
<radialGradient id="paint0_radial_527_450" cx="0" cy="0" r="1" gradientUnits="userSpaceOnUse" gradientTransform="translate(279.144 327.725) rotate(-145.993) scale(351.023)">
<stop stop-color="#00A3FF"/>
<stop offset="1" stop-color="#DAFDFF"/>
</radialGradient>
</defs>
</svg>
