<svg width="27" height="52" viewBox="0 0 27 52" fill="none" xmlns="http://www.w3.org/2000/svg">
<path d="M2.00772 15.0596V37.3231C2.00772 39.7045 2.66706 42.0394 3.91265 44.0691L4.27915 44.6663C5.51666 46.6828 7.38107 48.238 9.58682 49.0938C12.1042 50.0704 14.8958 50.0704 17.4131 49.0938C19.6189 48.238 21.4833 46.6828 22.7208 44.6663L23.0873 44.0691C24.3329 42.0394 24.9922 39.7045 24.9922 37.3231V15.0596C24.9922 12.6981 24.3805 10.377 23.2165 8.32232L22.6653 7.34931C21.4676 5.23495 19.5756 3.59973 17.3101 2.72078C14.859 1.76984 12.1409 1.76984 9.68989 2.72078C7.42436 3.59973 5.5324 5.23495 4.33464 7.34932L3.78345 8.32232C2.61951 10.377 2.00772 12.6981 2.00772 15.0596Z" stroke="white" stroke-width="4" stroke-linecap="round"/>
</svg>
