<svg width="8" height="12" viewBox="0 0 8 12" fill="none" xmlns="http://www.w3.org/2000/svg">
<mask id="mask0_418_1088" style="mask-type:alpha" maskUnits="userSpaceOnUse" x="-3" y="-1" width="13" height="14">
<rect x="-2.00123" y="-0.536591" width="11.9998" height="12.89" fill="#D9D9D9"/>
</mask>
<g mask="url(#mask0_418_1088)">
<path d="M0.999987 11.2788C0.72499 11.2788 0.489577 11.1736 0.293746 10.9632C0.0979154 10.7529 0 10.5 0 10.2046V4.83377C0 4.53837 0.0979154 4.28549 0.293746 4.07513C0.489577 3.86477 0.72499 3.7596 0.999987 3.7596H1.49998V2.68543C1.49998 1.94246 1.74373 1.30914 2.23122 0.785487C2.71871 0.261829 3.30829 0 3.99995 0C4.6916 0 5.28118 0.261829 5.76867 0.785487C6.25617 1.30914 6.49991 1.94246 6.49991 2.68543V3.7596H6.99991C7.2749 3.7596 7.51032 3.86477 7.70615 4.07513C7.90198 4.28549 7.99989 4.53837 7.99989 4.83377V10.2046C7.99989 10.5 7.90198 10.7529 7.70615 10.9632C7.51032 11.1736 7.2749 11.2788 6.99991 11.2788H0.999987ZM0.999987 10.2046H6.99991V4.83377H0.999987V10.2046ZM3.99995 8.59336C4.27494 8.59336 4.51036 8.48818 4.70619 8.27782C4.90202 8.06746 4.99993 7.81459 4.99993 7.51919C4.99993 7.22379 4.90202 6.97092 4.70619 6.76056C4.51036 6.5502 4.27494 6.44502 3.99995 6.44502C3.72495 6.44502 3.48954 6.5502 3.29371 6.76056C3.09788 6.97092 2.99996 7.22379 2.99996 7.51919C2.99996 7.81459 3.09788 8.06746 3.29371 8.27782C3.48954 8.48818 3.72495 8.59336 3.99995 8.59336ZM2.49997 3.7596H5.49993V2.68543C5.49993 2.23785 5.3541 1.85742 5.06243 1.54412C4.77077 1.23082 4.41661 1.07417 3.99995 1.07417C3.58329 1.07417 3.22912 1.23082 2.93746 1.54412C2.6458 1.85742 2.49997 2.23785 2.49997 2.68543V3.7596Z" fill="#18113E" fill-opacity="0.45"/>
</g>
</svg>
