<svg width="264" height="264" viewBox="0 0 264 264" fill="none" xmlns="http://www.w3.org/2000/svg">
<g opacity="0.2">
<path d="M256.793 153.951C270.907 175.145 258.472 203.843 233.357 208.039C218.982 210.441 207.586 221.474 204.72 235.765C199.714 260.73 170.628 272.23 149.903 257.439C138.039 248.972 122.179 248.715 110.048 256.794C88.8547 270.908 60.1563 258.473 55.9603 233.358C53.5586 218.983 42.5249 207.586 28.2348 204.721C3.26899 199.715 -8.23104 170.629 6.56068 149.903C15.0273 138.04 15.2839 122.179 7.20543 110.049C-6.90817 88.8553 5.52669 60.1569 30.6414 55.9609C45.0167 53.5592 56.4132 42.5255 59.2787 28.2354C64.2848 3.26961 93.3705 -8.23045 114.096 6.5613C125.959 15.0279 141.82 15.2845 153.951 7.20604C175.144 -6.90755 203.843 5.52731 208.038 30.642C210.44 45.0173 221.474 56.4138 235.764 59.2793C260.73 64.2854 272.23 93.3711 257.438 114.097C248.971 125.96 248.715 141.82 256.793 153.951Z" fill="url(#paint0_radial_976_1401)" fill-opacity="0.2"/>
<path d="M256.376 154.229C270.289 175.12 258.031 203.409 233.275 207.545C218.694 209.981 207.135 221.172 204.229 235.666C199.294 260.276 170.624 271.612 150.194 257.031C138.161 248.444 122.074 248.183 109.77 256.377C88.8794 270.289 60.5904 258.032 56.4543 233.276C54.0183 218.695 42.8272 207.136 28.3333 204.23C3.72359 199.295 -7.61239 170.624 6.96835 150.194C15.5557 138.162 15.816 122.075 7.62227 109.771C-6.28998 88.88 5.9675 60.591 30.7239 56.4549C45.3043 54.0189 56.8634 42.8278 59.7697 28.3339C64.7045 3.72422 93.3752 -7.61179 113.805 6.96895C125.838 15.5564 141.924 15.8166 154.228 7.6229C175.119 -6.28936 203.408 5.96811 207.544 30.7245C209.98 45.3049 221.172 56.864 235.666 59.7704C260.275 64.7051 271.611 93.3758 257.03 113.806C248.443 125.838 248.183 141.925 256.376 154.229Z" stroke="#7A7A7A" stroke-opacity="0.2"/>
</g>
<defs>
<radialGradient id="paint0_radial_976_1401" cx="0" cy="0" r="1" gradientUnits="userSpaceOnUse" gradientTransform="translate(216.669 129.3) rotate(162.12) scale(289.625)">
<stop/>
<stop offset="1" stop-color="#DAFDFF"/>
</radialGradient>
</defs>
</svg>
