<svg width="377" height="377" viewBox="0 0 377 377" fill="none" xmlns="http://www.w3.org/2000/svg">
<path d="M40.3923 85.3868C47.4793 55.593 72.3751 33.3674 102.779 29.6916L115.877 28.108C126.365 26.8401 136.453 23.3156 145.449 17.7771L156.684 10.86C182.763 -5.19608 216.083 -3.30794 240.18 15.5915L250.562 23.7336C258.875 30.2529 268.5 34.8945 278.778 37.3391L291.613 40.3923C321.407 47.4793 343.632 72.3751 347.308 102.779L348.892 115.877C350.16 126.365 353.684 136.453 359.223 145.449L366.14 156.684C382.196 182.763 380.308 216.083 361.408 240.18L353.266 250.562C346.747 258.875 342.105 268.5 339.661 278.778L336.608 291.613C329.521 321.407 304.625 343.632 274.221 347.308L261.123 348.892C250.635 350.16 240.547 353.684 231.551 359.223L220.316 366.14C194.237 382.196 160.917 380.308 136.82 361.408L126.438 353.266C118.125 346.747 108.5 342.105 98.2223 339.661L85.3867 336.608C55.593 329.521 33.3674 304.625 29.6916 274.221L28.108 261.123C26.84 250.635 23.3156 240.547 17.7771 231.551L10.86 220.316C-5.19609 194.237 -3.30795 160.917 15.5915 136.82L23.7336 126.438C30.2529 118.125 34.8944 108.5 37.3391 98.2223L40.3923 85.3868Z" fill="url(#paint0_radial_976_435)"/>
<path d="M40.8797 85.5027C47.9182 55.913 72.6435 33.8397 102.839 30.189L115.937 28.6054C126.497 27.3288 136.654 23.7802 145.712 18.2038L156.947 11.2866C182.847 -4.65944 215.938 -2.78423 239.871 15.9857L250.253 24.1278C258.622 30.6918 268.314 35.3652 278.662 37.8265L291.497 40.8797C321.087 47.9182 343.16 72.6435 346.811 102.839L348.394 115.937C349.671 126.497 353.22 136.654 358.796 145.712L365.713 156.947C381.659 182.847 379.784 215.938 361.014 239.871L352.872 250.253C346.308 258.622 341.635 268.314 339.173 278.662L336.12 291.497C329.082 321.087 304.356 343.16 274.161 346.811L261.063 348.394C250.503 349.671 240.346 353.22 231.288 358.796L220.053 365.713C194.153 381.659 161.061 379.784 137.129 361.014L126.747 352.872C118.378 346.308 108.686 341.635 98.3382 339.173L85.5027 336.12C55.913 329.082 33.8397 304.356 30.189 274.161L28.6054 261.063C27.3288 250.503 23.7802 240.346 18.2038 231.288L11.2866 220.053C-4.65945 194.153 -2.78424 161.061 15.9857 137.129L24.1278 126.747C30.6918 118.378 35.3651 108.686 37.8265 98.3382L40.8797 85.5027Z" stroke="#7A7A7A" stroke-opacity="0.2"/>
<defs>
<radialGradient id="paint0_radial_976_435" cx="0" cy="0" r="1" gradientUnits="userSpaceOnUse" gradientTransform="translate(93.9222 148.373) rotate(6.93633) scale(351.254)">
<stop stop-color="#92D8FF"/>
<stop offset="1" stop-color="#DAFDFF"/>
</radialGradient>
</defs>
</svg>
