<svg width="27" height="51" viewBox="0 0 27 51" fill="none" xmlns="http://www.w3.org/2000/svg">
<path d="M2.03479 14.8771V36.6602C2.03479 39.0172 2.69305 41.3272 3.93539 43.3301L4.26665 43.8642C5.50765 45.8649 7.36923 47.4047 9.56724 48.2484C12.0556 49.2036 14.8095 49.2036 17.2978 48.2484C19.4958 47.4047 21.3574 45.8649 22.5984 43.8642L22.9297 43.3301C24.172 41.3272 24.8302 39.0172 24.8302 36.6602V14.8771C24.8302 12.5401 24.2194 10.2437 23.0581 8.21556L22.5435 7.31669C21.3419 5.218 19.4526 3.59849 17.1949 2.73185C14.7728 1.80212 12.0923 1.80212 9.67018 2.73185C7.41247 3.59849 5.52316 5.218 4.32155 7.31669L3.8069 8.21556C2.64569 10.2437 2.03479 12.5401 2.03479 14.8771Z" stroke="white" stroke-width="4" stroke-linecap="round"/>
</svg>
