<svg width="459" height="459" viewBox="0 0 459 459" fill="none" xmlns="http://www.w3.org/2000/svg">
<path d="M11.1948 260.92C-5.07415 235.026 -3.49108 201.738 15.1618 177.504L33.0577 154.254C39.492 145.895 44.0394 136.241 46.3872 125.957L52.9173 97.3526C59.7236 67.5385 84.381 45.1198 114.706 41.1736L143.801 37.3875C154.262 36.0263 164.304 32.4155 173.236 26.8036L198.079 11.1948C223.974 -5.07416 257.262 -3.49107 281.496 15.1618L304.746 33.0577C313.105 39.492 322.759 44.0394 333.043 46.3872L361.647 52.9173C391.461 59.7235 413.88 84.381 417.826 114.706L421.612 143.801C422.974 154.262 426.584 164.304 432.196 173.236L447.805 198.079C464.074 223.974 462.491 257.262 443.838 281.496L425.942 304.746C419.508 313.105 414.961 322.759 412.613 333.043L406.083 361.647C399.276 391.461 374.619 413.88 344.294 417.826L315.199 421.612C304.738 422.974 294.696 426.584 285.764 432.196L260.92 447.805C235.026 464.074 201.738 462.491 177.504 443.838L154.254 425.942C145.895 419.508 136.241 414.961 125.957 412.613L97.3526 406.083C67.5385 399.276 45.1199 374.619 41.1736 344.294L37.3875 315.199C36.0263 304.738 32.4155 294.696 26.8036 285.764L11.1948 260.92Z" fill="url(#paint0_radial_531_474)"/>
<path d="M11.6185 260.654C-4.53907 234.937 -2.96684 201.877 15.5583 177.81L33.4542 154.559C39.9326 146.143 44.5111 136.423 46.875 126.068L53.4051 97.4639C60.1647 67.854 84.6533 45.5889 114.771 41.6697L143.866 37.8836C154.398 36.5131 164.509 32.8776 173.502 27.2272L198.346 11.6185C224.063 -4.53908 257.123 -2.96684 281.19 15.5583L304.441 33.4542C312.857 39.9326 322.577 44.5111 332.932 46.875L361.536 53.405C391.146 60.1647 413.411 84.6533 417.33 114.771L421.116 143.866C422.487 154.398 426.122 164.509 431.773 173.502L447.382 198.346C463.539 224.063 461.967 257.123 443.442 281.19L425.546 304.441C419.067 312.857 414.489 322.577 412.125 332.932L405.595 361.536C398.835 391.146 374.347 413.411 344.229 417.33L315.134 421.116C304.602 422.487 294.491 426.122 285.498 431.773L260.654 447.381C234.937 463.539 201.877 461.967 177.81 443.442L154.559 425.546C146.143 419.067 136.423 414.489 126.068 412.125L97.4639 405.595C67.8541 398.835 45.589 374.347 41.6697 344.229L37.8836 315.134C36.5131 304.602 32.8776 294.491 27.2272 285.498L11.6185 260.654Z" stroke="#7A7A7A" stroke-opacity="0.2"/>
<defs>
<radialGradient id="paint0_radial_531_474" cx="0" cy="0" r="1" gradientUnits="userSpaceOnUse" gradientTransform="translate(115.609 276.746) rotate(-38.5842) scale(421.56)">
<stop stop-color="#92D8FF"/>
<stop offset="1" stop-color="#DAFDFF"/>
</radialGradient>
</defs>
</svg>
