<svg width="34" height="34" viewBox="0 0 34 34" fill="none" xmlns="http://www.w3.org/2000/svg">
<path d="M13.4797 2.03323C15.0436 -0.677867 18.9564 -0.677868 20.5202 2.03323C21.4399 3.62753 23.3162 4.40472 25.0938 3.92767C28.1167 3.11644 30.8834 5.8832 30.0722 8.90604C29.5951 10.6837 30.3723 12.56 31.9666 13.4796C34.6777 15.0435 34.6777 18.9563 31.9666 20.5201C30.3723 21.4397 29.5951 23.3161 30.0722 25.0937C30.8834 28.1165 28.1167 30.8833 25.0938 30.0721C23.3162 29.595 21.4399 30.3722 20.5202 31.9665C18.9564 34.6776 15.0436 34.6776 13.4797 31.9665C12.5601 30.3722 10.6838 29.595 8.90616 30.0721C5.88332 30.8833 3.11657 28.1165 3.92779 25.0937C4.40485 23.3161 3.62765 21.4397 2.03335 20.5201C-0.677746 18.9563 -0.677745 15.0435 2.03335 13.4796C3.62765 12.56 4.40485 10.6837 3.92779 8.90604C3.11657 5.8832 5.88332 3.11644 8.90616 3.92767C10.6838 4.40472 12.5601 3.62753 13.4797 2.03323Z" fill="white"/>
</svg>
