<svg width="339" height="68" viewBox="0 0 339 68" fill="none" xmlns="http://www.w3.org/2000/svg">
<rect x="0.2" y="67.8" width="67.6" height="338.6" rx="17.8" transform="rotate(-90 0.2 67.8)" fill="#FBFBFB" fill-opacity="0.62" stroke="white" stroke-width="0.4"/>
<rect x="181" y="59.4136" width="50.4138" height="147.55" rx="11" transform="rotate(-90 181 59.4136)" fill="#0A6AFF"/>
<rect x="10" y="59.4136" width="50.4138" height="157.941" rx="11" transform="rotate(-90 10 59.4136)" fill="#E0E0E0"/>
<path d="M61 59.4136C67.0751 59.4136 72 54.4887 72 48.4136V20.0286C72 13.9535 67.0751 9.0286 61 9.0286L21 9.0286C14.9249 9.0286 10 13.9535 10 20.0286V48.4136C10 54.4887 14.9249 59.4136 21 59.4136L61 59.4136Z" fill="#0A6AFF"/>
<path d="M46.7173 38.7679C46.5896 38.7679 46.4645 38.7324 46.3559 38.6653C46.2473 38.5981 46.1595 38.5021 46.1024 38.3879C46.0453 38.2737 46.0211 38.1459 46.0326 38.0187C46.0441 37.8915 46.0907 37.7701 46.1673 37.6679C46.8682 36.7277 47.2467 35.5864 47.2467 34.4138C47.2467 33.2411 46.8682 32.0998 46.1673 31.1596C46.0579 31.0137 46.0109 30.8304 46.0367 30.6499C46.0625 30.4694 46.159 30.3065 46.3048 30.1971C46.4507 30.0877 46.6341 30.0407 46.8146 30.0665C46.9951 30.0923 47.1579 30.1887 47.2673 30.3346C48.1467 31.5128 48.6217 32.9436 48.6217 34.4138C48.6217 35.8839 48.1467 37.3147 47.2673 38.4929C47.139 38.6763 46.9282 38.7679 46.7173 38.7679ZM43.069 26.8806C42.0423 26.3123 40.7315 26.4589 39.3932 27.2931L36.7165 28.9706C36.5332 29.0806 36.3223 29.1448 36.1115 29.1448H34.8007C32.5823 29.1448 31.3632 30.3639 31.3632 32.5823V36.2489C31.3632 38.4673 32.5823 39.6864 34.8007 39.6864H36.1115C36.3223 39.6864 36.5332 39.7506 36.7165 39.8606L39.3932 41.5381C40.1998 42.0423 40.9882 42.2898 41.7215 42.2898C42.1923 42.2939 42.6563 42.1771 43.069 41.9506C44.0865 41.3823 44.6548 40.1998 44.6548 38.6231V30.2081C44.6548 28.6314 44.0865 27.4489 43.069 26.8806Z" fill="white"/>
<path d="M264.662 32.7043L263.368 31.1901C263.128 30.9026 262.927 30.3659 262.927 29.9826V28.3534C262.927 27.3376 262.093 26.5039 261.077 26.5039H259.448C259.065 26.5039 258.519 26.3026 258.231 26.063L256.717 24.7693C256.056 24.2039 254.973 24.2039 254.312 24.7693L252.778 26.063C252.491 26.3026 251.954 26.5039 251.571 26.5039H249.913C248.897 26.5039 248.063 27.3376 248.063 28.3534V29.9826C248.063 30.3564 247.872 30.893 247.632 31.1805L246.338 32.7043C245.782 33.3751 245.782 34.4484 246.338 35.1001L247.632 36.6239C247.872 36.9018 248.063 37.448 248.063 37.8218V39.4605C248.063 40.4764 248.897 41.3101 249.913 41.3101H251.58C251.954 41.3101 252.5 41.5114 252.788 41.7509L254.302 43.0447C254.963 43.6101 256.046 43.6101 256.707 43.0447L258.222 41.7509C258.509 41.5114 259.046 41.3101 259.429 41.3101H261.058C262.074 41.3101 262.908 40.4764 262.908 39.4605V37.8314C262.908 37.448 263.109 36.9114 263.349 36.6239L264.642 35.1097C265.227 34.458 265.227 33.3751 264.662 32.7043ZM258.193 37.9751L257.254 35.8668C257.225 35.8668 257.196 35.8859 257.167 35.8859H253.813C253.785 35.8859 253.756 35.8764 253.727 35.8668L252.788 37.9751L251.475 37.3905L254.829 29.8389H256.142L259.496 37.3905L258.193 37.9751Z" fill="white"/>
<path d="M254.369 34.4502H256.631L255.5 31.9106L254.369 34.4502Z" fill="white"/>
</svg>
