<svg width="24" height="17" viewBox="0 0 24 17" fill="none" xmlns="http://www.w3.org/2000/svg">
<mask id="mask0_0_6" style="mask-type:alpha" maskUnits="userSpaceOnUse" x="0" y="-3" width="24" height="24">
<rect y="-3" width="24" height="24" fill="#D9D9D9"/>
</mask>
<g mask="url(#mask0_0_6)">
<path d="M0 17V15H4V14C3.45 14 2.97917 13.8042 2.5875 13.4125C2.19583 13.0208 2 12.55 2 12V2C2 1.45 2.19583 0.979167 2.5875 0.5875C2.97917 0.195833 3.45 0 4 0H20C20.55 0 21.0208 0.195833 21.4125 0.5875C21.8042 0.979167 22 1.45 22 2V12C22 12.55 21.8042 13.0208 21.4125 13.4125C21.0208 13.8042 20.55 14 20 14V15H24V17H0ZM4 12H20V2H4V12Z" fill="#051522" fill-opacity="0.64"/>
</g>
</svg>
