<svg width="33" height="35" viewBox="0 0 33 35" fill="none" xmlns="http://www.w3.org/2000/svg">
<path d="M6.796 33.4416C8.19981 33.4416 9.54612 32.9186 10.5388 31.9877C11.5314 31.0568 12.0891 29.7942 12.0891 28.4777C12.0891 27.1611 11.5314 25.8986 10.5388 24.9676C9.54612 24.0367 8.19981 23.5137 6.796 23.5137C5.39219 23.5137 4.04588 24.0367 3.05324 24.9676C2.0606 25.8986 1.50294 27.1611 1.50294 28.4777C1.50294 29.7942 2.0606 31.0568 3.05324 31.9877C4.04588 32.9186 5.39219 33.4416 6.796 33.4416Z" stroke="white" stroke-width="3" stroke-linecap="round" stroke-linejoin="round"/>
<path d="M31.497 25.1684V5.75816C31.497 1.62156 28.7317 1.0488 25.9325 1.76475L15.3464 4.46945C13.4124 4.96266 12.0891 6.39456 12.0891 8.46286V28.4617" stroke="white" stroke-width="3" stroke-linecap="round" stroke-linejoin="round"/>
<path d="M26.204 30.1324C27.6078 30.1324 28.9541 29.6094 29.9468 28.6785C30.9394 27.7476 31.4971 26.485 31.4971 25.1685C31.4971 23.8519 30.9394 22.5894 29.9468 21.6584C28.9541 20.7275 27.6078 20.2045 26.204 20.2045C24.8002 20.2045 23.4539 20.7275 22.4612 21.6584C21.4686 22.5894 20.9109 23.8519 20.9109 25.1685C20.9109 26.485 21.4686 27.7476 22.4612 28.6785C23.4539 29.6094 24.8002 30.1324 26.204 30.1324Z" stroke="white" stroke-width="3" stroke-linecap="round" stroke-linejoin="round"/>
</svg>
