<svg width="34" height="34" viewBox="0 0 34 34" fill="none" xmlns="http://www.w3.org/2000/svg">
<path d="M13.4798 2.03325C15.0436 -0.677875 18.9565 -0.677875 20.5203 2.03325C21.44 3.62757 23.3163 4.40477 25.094 3.92771C28.1168 3.11648 30.8836 5.88326 30.0724 8.90614C29.5953 10.6838 30.3725 12.5601 31.9668 13.4798C34.678 15.0436 34.678 18.9565 31.9668 20.5203C30.3725 21.44 29.5953 23.3163 30.0724 25.094C30.8836 28.1168 28.1168 30.8836 25.094 30.0724C23.3163 29.5953 21.44 30.3725 20.5203 31.9668C18.9565 34.678 15.0436 34.678 13.4798 31.9668C12.5601 30.3725 10.6838 29.5953 8.90614 30.0724C5.88326 30.8836 3.11648 28.1168 3.92771 25.094C4.40477 23.3163 3.62757 21.44 2.03325 20.5203C-0.677876 18.9565 -0.677875 15.0436 2.03325 13.4798C3.62757 12.5601 4.40477 10.6838 3.92771 8.90614C3.11648 5.88326 5.88326 3.11648 8.90614 3.92771C10.6838 4.40477 12.5601 3.62757 13.4798 2.03325Z" fill="white"/>
</svg>
