<svg width="17" height="18" viewBox="0 0 17 18" fill="none" xmlns="http://www.w3.org/2000/svg">
<mask id="mask0_1255_270" style="mask-type:alpha" maskUnits="userSpaceOnUse" x="-5" y="-3" width="27" height="23">
<rect x="-4.23179" y="-2.84205" width="25.3893" height="22.7364" fill="#D9D9D9"/>
</mask>
<g mask="url(#mask0_1255_270)">
<path d="M7.4052 17.9997C6.82337 17.9997 6.32528 17.8141 5.91094 17.4431C5.4966 17.072 5.28943 16.626 5.28943 16.105V12.3156H2.11577C1.53394 12.3156 1.03585 12.13 0.621508 11.759C0.207169 11.3879 0 10.9419 0 10.4209V3.7894C0 2.74732 0.414339 1.85523 1.24302 1.11314C2.07169 0.371046 3.06787 0 4.23155 0H16.9262V10.4209C16.9262 10.9419 16.719 11.3879 16.3047 11.759C15.8903 12.13 15.3922 12.3156 14.8104 12.3156H11.6367V16.105C11.6367 16.626 11.4296 17.072 11.0152 17.4431C10.6009 17.8141 10.1028 17.9997 9.52098 17.9997H7.4052ZM2.11577 6.63145H14.8104V1.8947H13.7525V5.6841H11.6367V1.8947H10.5789V3.7894H8.46309V1.8947H4.23155C3.64971 1.8947 3.15162 2.08022 2.73728 2.45127C2.32294 2.82232 2.11577 3.26836 2.11577 3.7894V6.63145ZM2.11577 10.4209H14.8104V8.52616H2.11577V10.4209Z" fill="#051522" fill-opacity="0.64"/>
</g>
</svg>
