<svg width="296" height="296" viewBox="0 0 296 296" fill="none" xmlns="http://www.w3.org/2000/svg">
<g opacity="0.2">
<path d="M56.2161 257.293C28.7374 246.424 10.938 219.588 11.6125 190.045C11.8451 179.855 9.86787 169.735 5.81665 160.381C-5.92779 133.265 0.4619 101.703 21.8286 81.29C29.199 74.2487 34.9569 65.6945 38.7063 56.2159C49.5758 28.7372 76.4116 10.9378 105.954 11.6123C116.145 11.8449 126.265 9.86765 135.619 5.81641C162.735 -5.92803 194.297 0.461653 214.71 21.8284C221.751 29.1988 230.305 34.9567 239.784 38.7061C267.263 49.5756 285.062 76.4114 284.387 105.954C284.155 116.145 286.132 126.265 290.183 135.618C301.928 162.735 295.538 194.297 274.171 214.709C266.801 221.751 261.043 230.305 257.294 239.784C246.424 267.262 219.588 285.062 190.046 284.387C179.855 284.155 169.735 286.132 160.381 290.183C133.265 301.928 101.703 295.538 81.2903 274.171C74.2489 266.801 65.6948 261.043 56.2161 257.293Z" fill="url(#paint0_radial_874_167)" fill-opacity="0.2"/>
<path d="M56.4005 256.827C29.117 246.035 11.4441 219.39 12.1137 190.057C12.3481 179.794 10.3567 169.602 6.27674 160.182C-5.38427 133.258 0.960031 101.92 22.175 81.6526C29.5977 74.5612 35.3965 65.9463 39.1725 56.4003C49.9648 29.1168 76.61 11.4438 105.943 12.1135C116.206 12.3478 126.398 10.3565 135.818 6.2765C162.742 -5.38451 194.079 0.959791 214.347 22.1747C221.439 29.5975 230.053 35.3963 239.599 39.1723C266.883 49.9646 284.556 76.6098 283.886 105.943C283.652 116.206 285.643 126.398 289.723 135.818C301.384 162.741 295.04 194.079 273.825 214.347C266.402 221.438 260.603 230.053 256.827 239.599C246.035 266.883 219.39 284.556 190.057 283.886C179.794 283.652 169.602 285.643 160.182 289.723C133.258 301.384 101.921 295.04 81.6528 273.825C74.5614 266.402 65.9465 260.603 56.4005 256.827Z" stroke="#7A7A7A" stroke-opacity="0.2"/>
</g>
<defs>
<radialGradient id="paint0_radial_874_167" cx="0" cy="0" r="1" gradientUnits="userSpaceOnUse" gradientTransform="translate(105.106 218.849) rotate(-74.8621) scale(283.164)">
<stop/>
<stop offset="1" stop-color="#DAFDFF"/>
</radialGradient>
</defs>
</svg>
