<svg width="17" height="17" viewBox="0 0 17 17" fill="none" xmlns="http://www.w3.org/2000/svg">
<mask id="mask0_435_63" style="mask-type:alpha" maskUnits="userSpaceOnUse" x="-2" y="-2" width="21" height="21">
<rect x="-1.7003" y="-1.6998" width="20.3996" height="20.3996" fill="#D9D9D9"/>
</mask>
<g mask="url(#mask0_435_63)">
<path d="M7.64985 12.7498H9.34982V9.34982H12.7498V7.64985H9.34982V4.24992H7.64985V7.64985H4.24992V9.34982H7.64985V12.7498ZM8.49983 16.9997C7.32402 16.9997 6.21904 16.7765 5.1849 16.3303C4.15075 15.8841 3.25119 15.2785 2.4862 14.5135C1.72122 13.7485 1.1156 12.8489 0.669362 11.8148C0.223121 10.7806 0 9.67564 0 8.49983C0 7.32402 0.223121 6.21904 0.669362 5.1849C1.1156 4.15075 1.72122 3.25119 2.4862 2.4862C3.25119 1.72122 4.15075 1.1156 5.1849 0.669362C6.21904 0.223121 7.32402 0 8.49983 0C9.67564 0 10.7806 0.223121 11.8148 0.669362C12.8489 1.1156 13.7485 1.72122 14.5135 2.4862C15.2785 3.25119 15.8841 4.15075 16.3303 5.1849C16.7765 6.21904 16.9997 7.32402 16.9997 8.49983C16.9997 9.67564 16.7765 10.7806 16.3303 11.8148C15.8841 12.8489 15.2785 13.7485 14.5135 14.5135C13.7485 15.2785 12.8489 15.8841 11.8148 16.3303C10.7806 16.7765 9.67564 16.9997 8.49983 16.9997ZM8.49983 15.2997C10.3981 15.2997 12.006 14.641 13.3235 13.3235C14.641 12.006 15.2997 10.3981 15.2997 8.49983C15.2997 6.60154 14.641 4.99365 13.3235 3.67618C12.006 2.3587 10.3981 1.69997 8.49983 1.69997C6.60154 1.69997 4.99365 2.3587 3.67618 3.67618C2.3587 4.99365 1.69997 6.60154 1.69997 8.49983C1.69997 10.3981 2.3587 12.006 3.67618 13.3235C4.99365 14.641 6.60154 15.2997 8.49983 15.2997Z" fill="#503351" fill-opacity="0.45"/>
</g>
</svg>
