<svg width="330" height="330" viewBox="0 0 330 330" fill="none" xmlns="http://www.w3.org/2000/svg">
<path d="M244.56 37.6886C274.108 31.6041 300.103 58.0134 293.553 87.462C289.803 104.318 296.858 121.738 311.28 131.235C336.476 147.826 336.184 184.882 310.728 201.073C296.158 210.341 288.829 227.647 292.311 244.56C298.396 274.108 271.987 300.104 242.538 293.553C225.682 289.803 208.262 296.858 198.765 311.28C182.174 336.477 145.118 336.184 128.927 310.728C119.659 296.158 102.353 288.829 85.44 292.312C55.8915 298.396 29.8964 271.987 36.4471 242.538C40.1966 225.682 33.1419 208.262 18.7198 198.766C-6.47654 182.174 -6.18373 145.118 19.2716 128.927C33.842 119.659 41.1712 102.353 37.6885 85.4402C31.604 55.8917 58.0132 29.8966 87.4618 36.4473C104.318 40.1968 121.738 33.142 131.234 18.72C147.826 -6.47636 184.882 -6.18356 201.073 19.2718C210.34 33.8422 227.647 41.1713 244.56 37.6886Z" fill="url(#paint0_radial_531_495)"/>
<path d="M244.661 38.1789C273.854 32.1677 299.536 58.2591 293.064 87.3533C289.269 104.412 296.409 122.042 311.005 131.653C335.898 148.045 335.609 184.654 310.46 200.651C295.714 210.03 288.296 227.544 291.821 244.661C297.832 273.854 271.741 299.536 242.647 293.064C225.588 289.27 207.958 296.409 198.347 311.005C181.955 335.898 145.346 335.609 129.349 310.46C119.97 295.714 102.456 288.297 85.339 291.821C56.1462 297.832 30.4639 271.741 36.9357 242.647C40.7304 225.588 33.5907 207.959 18.9951 198.347C-5.89801 181.956 -5.60872 145.346 19.5403 129.35C34.286 119.97 41.7034 102.456 38.1788 85.3392C32.1675 56.1464 58.2589 30.4641 87.3531 36.9359C104.412 40.7306 122.041 33.5909 131.653 18.9953C148.044 -5.89782 184.654 -5.60855 200.65 19.5405C210.03 34.2862 227.544 41.7036 244.661 38.1789Z" stroke="#7A7A7A" stroke-opacity="0.2"/>
<defs>
<radialGradient id="paint0_radial_531_495" cx="0" cy="0" r="1" gradientUnits="userSpaceOnUse" gradientTransform="translate(134.577 298.287) rotate(-100.54) scale(300.105)">
<stop stop-color="#00A3FF"/>
<stop offset="1" stop-color="#DAFDFF"/>
</radialGradient>
</defs>
</svg>
