<svg width="43" height="43" viewBox="0 0 43 43" fill="none" xmlns="http://www.w3.org/2000/svg">
<mask id="mask0_418_1123" style="mask-type:alpha" maskUnits="userSpaceOnUse" x="-2" y="-5" width="50" height="50">
<rect x="-1.36067" y="-4.18392" width="48.3935" height="48.3935" fill="#D9D9D9"/>
</mask>
<g mask="url(#mask0_418_1123)">
<path d="M42.9996 34.3795L38.9668 30.3467V9.93074H30.8004L27.1205 5.89795H18.5508L16.6353 8.01517L13.7619 5.14181L16.7865 1.86516H28.8848L32.6152 5.89795H38.9668C40.0758 5.89795 41.0252 6.29283 41.815 7.08258C42.6047 7.87234 42.9996 8.82172 42.9996 9.93074V34.3795ZM6.70451 38.1603C5.59549 38.1603 4.64611 37.7654 3.85635 36.9756C3.0666 36.1859 2.67172 35.2365 2.67172 34.1275V9.93074C2.67172 8.82172 3.0666 7.87234 3.85635 7.08258C4.64611 6.29283 5.59549 5.89795 6.70451 5.89795H8.77131L12.8041 9.93074H6.70451V34.1275H37.0008L41.0336 38.1603H6.70451ZM30.1955 27.3221C29.3553 28.4648 28.3051 29.3805 27.0449 30.0695C25.7846 30.7584 24.3816 31.1029 22.8357 31.1029C20.3152 31.1029 18.1728 30.2207 16.4084 28.4564C14.6441 26.692 13.7619 24.5496 13.7619 22.0291C13.7619 20.4832 14.1064 19.0801 14.7953 17.8199C15.4842 16.5596 16.4 15.5094 17.5426 14.6693L20.4664 17.593C19.6598 18.0299 19.0129 18.6348 18.5256 19.4078C18.0383 20.1807 17.7947 21.0545 17.7947 22.0291C17.7947 23.4406 18.282 24.6336 19.2566 25.6082C20.2312 26.5828 21.4242 27.0701 22.8357 27.0701C23.8103 27.0701 24.684 26.8264 25.457 26.3391C26.2299 25.8519 26.8348 25.2049 27.2717 24.3984L30.1955 27.3221ZM29.2881 15.5766C30.1283 16.3832 30.7752 17.341 31.2289 18.45C31.6826 19.559 31.9094 20.7521 31.9094 22.0291V22.634C31.9094 22.8357 31.8926 23.0373 31.859 23.2389L21.6258 13.0057C21.8275 12.9721 22.0291 12.9553 22.2307 12.9553H22.8357C24.1127 12.9553 25.3057 13.1822 26.4148 13.6359C27.5238 14.0896 28.4816 14.7365 29.2881 15.5766ZM39.9246 42.798L0 2.87336L2.87336 0L42.798 39.9246L39.9246 42.798Z" fill="white"/>
</g>
</svg>
