<svg width="90" height="81" viewBox="0 0 90 81" fill="none" xmlns="http://www.w3.org/2000/svg">
<g opacity="0.8">
<path d="M2.5 70.0556V27.8333C2.5 23.1696 6.2807 19.3889 10.9444 19.3889H13.0556C15.7135 19.3889 18.2163 18.1375 19.8111 16.0111L29.1844 3.51333C29.6629 2.87544 30.4137 2.5 31.2111 2.5H58.2333C59.0309 2.5 59.7816 2.87544 60.26 3.51333L69.6333 16.0111C71.2281 18.1375 73.731 19.3889 76.3889 19.3889H78.5C83.1639 19.3889 86.9444 23.1696 86.9444 27.8333V70.0556C86.9444 74.7194 83.1639 78.5 78.5 78.5H10.9444C6.2807 78.5 2.5 74.7194 2.5 70.0556Z" fill="black" stroke="white" stroke-width="5" stroke-linecap="round" stroke-linejoin="round"/>
<path d="M44.7222 61.6113C54.0495 61.6113 61.6111 54.0497 61.6111 44.7224C61.6111 35.3951 54.0495 27.8335 44.7222 27.8335C35.3947 27.8335 27.8333 35.3951 27.8333 44.7224C27.8333 54.0497 35.3947 61.6113 44.7222 61.6113Z" fill="black" stroke="white" stroke-width="5" stroke-linecap="round" stroke-linejoin="round"/>
</g>
</svg>
