<svg width="14" height="22" viewBox="0 0 14 22" fill="none" xmlns="http://www.w3.org/2000/svg">
<mask id="mask0_0_26" style="mask-type:alpha" maskUnits="userSpaceOnUse" x="-5" y="-1" width="24" height="24">
<rect x="-5" y="-1" width="24" height="24" fill="#D9D9D9"/>
</mask>
<g mask="url(#mask0_0_26)">
<path d="M2 22C1.45 22 0.979167 21.8042 0.5875 21.4125C0.195833 21.0208 0 20.55 0 20V2C0 1.45 0.195833 0.979167 0.5875 0.5875C0.979167 0.195833 1.45 0 2 0H12C12.55 0 13.0208 0.195833 13.4125 0.5875C13.8042 0.979167 14 1.45 14 2V20C14 20.55 13.8042 21.0208 13.4125 21.4125C13.0208 21.8042 12.55 22 12 22H2ZM2 19V20H12V19H2ZM2 17H12V5H2V17ZM2 3H12V2H2V3Z" fill="#051522" fill-opacity="0.64"/>
</g>
</svg>
