<svg width="385" height="385" viewBox="0 0 385 385" fill="none" xmlns="http://www.w3.org/2000/svg">
<path d="M292.177 50.0293C325.531 44.6782 353.309 75.5009 344.531 108.121C339.075 128.396 346.713 149.933 363.724 162.24C391.092 182.041 388.94 223.478 359.667 240.337C341.473 250.815 331.644 271.446 334.97 292.177C340.321 325.53 309.499 353.309 276.879 344.531C256.604 339.075 235.067 346.713 222.759 363.724C202.959 391.092 161.521 388.94 144.663 359.667C134.184 341.472 113.554 331.644 92.823 334.97C59.4692 340.321 31.6906 309.498 40.4688 276.878C45.9249 256.604 38.2869 235.066 21.276 222.759C-6.09249 202.958 -3.93998 161.521 25.3328 144.662C43.5273 134.184 53.3557 113.554 50.0297 92.8226C44.6786 59.4688 75.5013 31.6902 108.121 40.4684C128.396 45.9245 149.933 38.2865 162.241 21.2756C182.041 -6.09288 223.479 -3.94038 240.337 25.3324C250.816 43.5269 271.446 53.3553 292.177 50.0293Z" stroke="#7A7A7A" stroke-opacity="0.2" stroke-width="4"/>
</svg>
