<svg width="230" height="230" viewBox="0 0 230 230" fill="none" xmlns="http://www.w3.org/2000/svg">
<path d="M49.4765 25.3648C53.8329 3.56883 78.8784 -6.87515 97.4293 5.36852C107.937 12.3033 121.575 12.2709 132.049 5.28627C150.542 -7.04541 175.637 3.27944 180.097 25.0545C182.623 37.3879 192.29 47.009 204.635 49.4764C226.431 53.8328 236.875 78.8783 224.631 97.4293C217.696 107.936 217.729 121.575 224.714 132.049C237.045 150.542 226.72 175.637 204.945 180.097C192.612 182.623 182.991 192.29 180.523 204.635C176.167 226.431 151.121 236.875 132.571 224.631C122.063 217.696 108.425 217.729 97.9504 224.713C79.4579 237.045 54.3631 226.72 49.9032 204.945C47.3771 192.612 37.7101 182.991 25.3649 180.523C3.56889 176.167 -6.87509 151.121 5.36857 132.57C12.3034 122.063 12.271 108.425 5.28632 97.9504C-7.04535 79.4579 3.27949 54.363 25.0545 49.9031C37.3879 47.377 47.009 37.7101 49.4765 25.3648Z" fill="url(#paint0_radial_1019_235)"/>
<path d="M49.9675 25.463C54.2542 4.01552 78.8992 -6.26143 97.1535 5.78643C107.829 12.8321 121.686 12.7992 132.327 5.70287C150.524 -6.4316 175.218 3.72813 179.606 25.155C182.173 37.6856 191.994 47.4605 204.537 49.9675C225.984 54.2542 236.261 78.8992 224.213 97.1534C217.168 107.829 217.201 121.685 224.297 132.327C236.431 150.524 226.272 175.217 204.845 179.606C192.314 182.173 182.539 191.994 180.032 204.537C175.746 225.984 151.101 236.261 132.846 224.213C122.171 217.168 108.314 217.201 97.6726 224.297C79.4758 236.431 54.7823 226.272 50.3937 204.845C47.8272 192.314 38.0057 182.539 25.463 180.032C4.01558 175.746 -6.26137 151.101 5.78649 132.846C12.8322 122.171 12.7993 108.314 5.70293 97.6726C-6.43154 79.4758 3.72818 54.7822 25.155 50.3937C37.6856 47.8272 47.4606 38.0056 49.9675 25.463Z" stroke="white" stroke-opacity="0.55"/>
<defs>
<radialGradient id="paint0_radial_1019_235" cx="0" cy="0" r="1" gradientUnits="userSpaceOnUse" gradientTransform="translate(197.308 172.139) rotate(-168.629) scale(219.944)">
<stop stop-color="#001826"/>
<stop offset="1" stop-opacity="0.46"/>
</radialGradient>
</defs>
</svg>
