<svg width="20" height="20" viewBox="0 0 20 20" fill="none" xmlns="http://www.w3.org/2000/svg">
<path fill-rule="evenodd" clip-rule="evenodd" d="M3.21428 0.499998H16.7857C18.2847 0.499998 19.4999 1.69156 19.4999 3.16142V16.4685C19.4999 17.9384 18.2847 19.1299 16.7857 19.1299H3.21428C1.71522 19.1299 0.499998 17.9384 0.499998 16.4685V3.16142C0.499998 1.69156 1.71522 0.499998 3.21428 0.499998Z" stroke="white" stroke-linecap="round" stroke-linejoin="round"/>
<path d="M19.5 13.807L15.4286 9.81491L11.3571 13.7871" stroke="white" stroke-linecap="round" stroke-linejoin="round"/>
<path d="M16.7857 19.1302L4.57141 7.15379L0.499998 11.1459" stroke="white" stroke-linecap="round" stroke-linejoin="round"/>
<path d="M14.7502 6.48807C15.4998 6.48807 16.1074 5.89229 16.1074 5.15736C16.1074 4.42243 15.4998 3.82665 14.7502 3.82665C14.0007 3.82665 13.3931 4.42243 13.3931 5.15736C13.3931 5.89229 14.0007 6.48807 14.7502 6.48807Z" fill="white"/>
</svg>
