<svg width="27" height="51" viewBox="0 0 27 51" fill="none" xmlns="http://www.w3.org/2000/svg">
<path d="M2.03481 14.8773V36.6606C2.03481 39.0175 2.69308 41.3276 3.93543 43.3305L4.26669 43.8646C5.50771 45.8654 7.3693 47.4052 9.56734 48.2489C12.0557 49.2041 14.8096 49.2041 17.298 48.2489C19.496 47.4052 21.3576 45.8654 22.5986 43.8646L22.9299 43.3305C24.1722 41.3276 24.8305 39.0175 24.8305 36.6606V14.8773C24.8305 12.5402 24.2196 10.2438 23.0584 8.21564L22.5437 7.31676C21.3421 5.21805 19.4528 3.59853 17.195 2.73188C14.7729 1.80213 12.0924 1.80214 9.67028 2.73188C7.41254 3.59853 5.52322 5.21805 4.32159 7.31676L3.80694 8.21564C2.64571 10.2438 2.03481 12.5402 2.03481 14.8773Z" stroke="white" stroke-width="4" stroke-linecap="round"/>
</svg>
