<svg width="306" height="306" viewBox="0 0 306 306" fill="none" xmlns="http://www.w3.org/2000/svg">
<path d="M65.8253 33.7464C71.6212 4.74818 104.943 -9.14686 129.623 7.14255C143.603 16.3689 161.748 16.3257 175.683 7.03312C200.286 -9.37338 233.673 4.36317 239.607 33.3335C242.968 49.7422 255.829 62.5425 272.254 65.8253C301.252 71.6212 315.147 104.943 298.857 129.623C289.631 143.603 289.674 161.748 298.967 175.683C315.373 200.286 301.637 233.673 272.666 239.607C256.258 242.968 243.457 255.829 240.175 272.254C234.379 301.252 201.057 315.147 176.377 298.857C162.397 289.631 144.252 289.674 130.317 298.967C105.714 315.373 72.3265 301.637 66.3929 272.666C63.0321 256.258 50.1709 243.457 33.7463 240.175C4.74816 234.379 -9.14687 201.057 7.14254 176.377C16.3688 162.397 16.3257 144.252 7.0331 130.317C-9.37339 105.714 4.36315 72.3265 33.3335 66.3929C49.7422 63.0321 62.5425 50.1709 65.8253 33.7464Z" fill="url(#paint0_radial_1019_193)"/>
<path d="M66.3163 33.8445C72.0425 5.19488 104.963 -8.53313 129.348 7.56048C143.495 16.8977 161.858 16.854 175.961 7.44974C200.268 -8.75955 233.254 4.81188 239.116 33.434C242.518 50.0399 255.534 62.9941 272.155 66.3163C300.805 72.0426 314.533 104.963 298.439 129.348C289.102 143.495 289.146 161.858 298.55 175.961C314.76 200.268 301.188 233.254 272.566 239.116C255.96 242.518 243.006 255.534 239.684 272.155C233.957 300.805 201.037 314.533 176.652 298.44C162.505 289.102 144.142 289.146 130.039 298.55C105.732 314.76 72.7458 301.188 66.8835 272.566C63.4823 255.96 50.4664 243.006 33.8445 239.684C5.19487 233.957 -8.53314 201.037 7.56046 176.652C16.8977 162.505 16.854 144.142 7.44972 130.039C-8.75957 105.732 4.81186 72.7458 33.4339 66.8835C50.0399 63.4823 62.9941 50.4665 66.3163 33.8445Z" stroke="white" stroke-opacity="0.55"/>
<defs>
<radialGradient id="paint0_radial_1019_193" cx="0" cy="0" r="1" gradientUnits="userSpaceOnUse" gradientTransform="translate(262.505 229.02) rotate(-168.629) scale(292.621)">
<stop stop-color="#001826"/>
<stop offset="1" stop-color="#355B5E" stop-opacity="0.46"/>
</radialGradient>
</defs>
</svg>
