<svg width="24" height="24" viewBox="0 0 24 24" fill="none" xmlns="http://www.w3.org/2000/svg">
<g clip-path="url(#clip0_367_1475)">
<mask id="mask0_367_1475" style="mask-type:alpha" maskUnits="userSpaceOnUse" x="0" y="0" width="24" height="24">
<rect width="24" height="24" fill="#D9D9D9"/>
</mask>
<g mask="url(#mask0_367_1475)">
<path d="M12.0001 22.0001C10.7501 22.0001 9.57927 21.7626 8.4876 21.2876C7.39593 20.8126 6.44593 20.1709 5.6376 19.3626C4.82926 18.5543 4.1876 17.6043 3.7126 16.5126C3.2376 15.4209 3.0001 14.2501 3.0001 13.0001C3.0001 11.7501 3.2376 10.5793 3.7126 9.4876C4.1876 8.39593 4.82926 7.44593 5.6376 6.6376C6.44593 5.82926 7.39593 5.1876 8.4876 4.7126C9.57927 4.2376 10.7501 4.0001 12.0001 4.0001C13.2501 4.0001 14.4209 4.2376 15.5126 4.7126C16.6043 5.1876 17.5543 5.82926 18.3626 6.6376C19.1709 7.44593 19.8126 8.39593 20.2876 9.4876C20.7626 10.5793 21.0001 11.7501 21.0001 13.0001C21.0001 14.2501 20.7626 15.4209 20.2876 16.5126C19.8126 17.6043 19.1709 18.5543 18.3626 19.3626C17.5543 20.1709 16.6043 20.8126 15.5126 21.2876C14.4209 21.7626 13.2501 22.0001 12.0001 22.0001ZM14.8001 17.2001L16.2001 15.8001L13.0001 12.6001V8.0001H11.0001V13.4001L14.8001 17.2001ZM5.6001 2.3501L7.0001 3.7501L2.7501 8.0001L1.3501 6.6001L5.6001 2.3501ZM18.4001 2.3501L22.6501 6.6001L21.2501 8.0001L17.0001 3.7501L18.4001 2.3501ZM12.0001 20.0001C13.9501 20.0001 15.6043 19.3209 16.9626 17.9626C18.3209 16.6043 19.0001 14.9501 19.0001 13.0001C19.0001 11.0501 18.3209 9.39593 16.9626 8.0376C15.6043 6.67926 13.9501 6.0001 12.0001 6.0001C10.0501 6.0001 8.39593 6.67926 7.0376 8.0376C5.67926 9.39593 5.0001 11.0501 5.0001 13.0001C5.0001 14.9501 5.67926 16.6043 7.0376 17.9626C8.39593 19.3209 10.0501 20.0001 12.0001 20.0001Z" fill="#051522"/>
</g>
</g>
<defs>
<clipPath id="clip0_367_1475">
<rect width="24" height="24" rx="12" fill="white"/>
</clipPath>
</defs>
</svg>
