<svg width="54" height="24" viewBox="0 0 54 24" fill="none" xmlns="http://www.w3.org/2000/svg">
<mask id="mask0_418_1062" style="mask-type:alpha" maskUnits="userSpaceOnUse" x="0" y="0" width="24" height="24">
<rect width="24" height="24" fill="#D9D9D9"/>
</mask>
<g mask="url(#mask0_418_1062)">
<path d="M19.6 21L13.3 14.7C12.8 15.1 12.225 15.4167 11.575 15.65C10.925 15.8833 10.2333 16 9.5 16C7.68333 16 6.14583 15.3708 4.8875 14.1125C3.62917 12.8542 3 11.3167 3 9.5C3 7.68333 3.62917 6.14583 4.8875 4.8875C6.14583 3.62917 7.68333 3 9.5 3C11.3167 3 12.8542 3.62917 14.1125 4.8875C15.3708 6.14583 16 7.68333 16 9.5C16 10.2333 15.8833 10.925 15.65 11.575C15.4167 12.225 15.1 12.8 14.7 13.3L21 19.6L19.6 21ZM9.5 14C10.75 14 11.8125 13.5625 12.6875 12.6875C13.5625 11.8125 14 10.75 14 9.5C14 8.25 13.5625 7.1875 12.6875 6.3125C11.8125 5.4375 10.75 5 9.5 5C8.25 5 7.1875 5.4375 6.3125 6.3125C5.4375 7.1875 5 8.25 5 9.5C5 10.75 5.4375 11.8125 6.3125 12.6875C7.1875 13.5625 8.25 14 9.5 14Z" fill="#051522" fill-opacity="0.64"/>
</g>
<mask id="mask1_418_1062" style="mask-type:alpha" maskUnits="userSpaceOnUse" x="30" y="0" width="24" height="24">
<rect x="30" width="24" height="24" fill="#D9D9D9"/>
</mask>
<g mask="url(#mask1_418_1062)">
<path d="M42 20C41.45 20 40.9792 19.8042 40.5875 19.4125C40.1958 19.0208 40 18.55 40 18C40 17.45 40.1958 16.9792 40.5875 16.5875C40.9792 16.1958 41.45 16 42 16C42.55 16 43.0208 16.1958 43.4125 16.5875C43.8042 16.9792 44 17.45 44 18C44 18.55 43.8042 19.0208 43.4125 19.4125C43.0208 19.8042 42.55 20 42 20ZM42 14C41.45 14 40.9792 13.8042 40.5875 13.4125C40.1958 13.0208 40 12.55 40 12C40 11.45 40.1958 10.9792 40.5875 10.5875C40.9792 10.1958 41.45 10 42 10C42.55 10 43.0208 10.1958 43.4125 10.5875C43.8042 10.9792 44 11.45 44 12C44 12.55 43.8042 13.0208 43.4125 13.4125C43.0208 13.8042 42.55 14 42 14ZM42 8C41.45 8 40.9792 7.80417 40.5875 7.4125C40.1958 7.02083 40 6.55 40 6C40 5.45 40.1958 4.97917 40.5875 4.5875C40.9792 4.19583 41.45 4 42 4C42.55 4 43.0208 4.19583 43.4125 4.5875C43.8042 4.97917 44 5.45 44 6C44 6.55 43.8042 7.02083 43.4125 7.4125C43.0208 7.80417 42.55 8 42 8Z" fill="#051522" fill-opacity="0.64"/>
</g>
</svg>
