<svg width="43" height="32" viewBox="0 0 43 32" fill="none" xmlns="http://www.w3.org/2000/svg">
<g filter="url(#filter0_i_865_478)">
<path d="M43 15.7745C43 27.838 33.9736 32 22.4226 32C14.2589 32 16.7874 25.7434 17.1419 17.4835C17.1907 16.3471 17.0657 15.2055 16.932 14.0759C15.2667 0.000126611 25.5381 0 30.7695 0C39.6045 0 43 8.55746 43 15.7745Z" fill="#FAFAFA" fill-opacity="0.74"/>
<path d="M0 19.038C0 13.0445 2.85773 10.7675 6.97813 9.32516C8.63719 8.74443 10.403 8.55746 12.1608 8.55746H14.7139C17.1565 8.55746 19.5606 7.91886 21.9922 7.68782C28.892 7.03228 33.1864 12.8847 33.1864 19.038C33.1864 26.1967 29.2173 30.0357 22.4226 32H11.7458C5.25876 32 0 26.1967 0 19.038Z" fill="#FAFAFA" fill-opacity="0.74"/>
</g>
<defs>
<filter id="filter0_i_865_478" x="0" y="-12" width="55" height="44" filterUnits="userSpaceOnUse" color-interpolation-filters="sRGB">
<feFlood flood-opacity="0" result="BackgroundImageFix"/>
<feBlend mode="normal" in="SourceGraphic" in2="BackgroundImageFix" result="shape"/>
<feColorMatrix in="SourceAlpha" type="matrix" values="0 0 0 0 0 0 0 0 0 0 0 0 0 0 0 0 0 0 127 0" result="hardAlpha"/>
<feOffset dx="12" dy="-12"/>
<feGaussianBlur stdDeviation="10.5"/>
<feComposite in2="hardAlpha" operator="arithmetic" k2="-1" k3="1"/>
<feColorMatrix type="matrix" values="0 0 0 0 0.105882 0 0 0 0 0.356863 0 0 0 0 1 0 0 0 0.3 0"/>
<feBlend mode="normal" in2="shape" result="effect1_innerShadow_865_478"/>
</filter>
</defs>
</svg>
