<svg width="407" height="407" viewBox="0 0 407 407" fill="none" xmlns="http://www.w3.org/2000/svg">
<path d="M300.243 45.6329C336.618 37.8099 368.962 70.0985 361.201 106.487C356.759 127.315 365.648 148.722 383.536 160.278C414.789 180.468 414.828 226.17 383.61 246.413C365.741 258 356.889 279.422 361.367 300.243C369.19 336.618 336.901 368.962 300.513 361.201C279.685 356.759 258.278 365.648 246.722 383.537C226.532 414.789 180.83 414.828 160.587 383.61C149 365.741 127.578 356.89 106.757 361.367C70.3821 369.19 38.0381 336.902 45.7987 300.513C50.2408 279.685 41.3523 258.278 23.4635 246.722C-7.78926 226.532 -7.82843 180.83 23.3897 160.587C41.2586 149 50.1104 127.578 45.6326 106.757C37.8097 70.3823 70.0983 38.0383 106.487 45.7989C127.315 50.241 148.722 41.3525 160.278 23.4637C180.468 -7.78904 226.17 -7.82821 246.413 23.3899C258 41.2588 279.422 50.1106 300.243 45.6329Z" fill="url(#paint0_radial_531_473)"/>
<path d="M300.348 46.1227C336.368 38.3761 368.396 70.3494 360.711 106.383C356.226 127.414 365.201 149.03 383.264 160.699C414.212 180.692 414.251 225.947 383.338 245.993C365.294 257.693 356.356 279.324 360.877 300.348C368.624 336.368 336.651 368.396 300.618 360.711C279.586 356.226 257.97 365.201 246.301 383.265C226.308 414.212 181.053 414.251 161.007 383.338C149.307 365.294 127.676 356.356 106.652 360.878C70.632 368.624 38.6039 336.651 46.2887 300.618C50.7742 279.586 41.7988 257.97 23.7354 246.301C-7.21217 226.309 -7.25095 181.053 23.6623 161.008C41.7057 149.307 50.6439 127.676 46.1225 106.652C38.3759 70.6322 70.3492 38.6041 106.382 46.2889C127.414 50.7744 149.03 41.799 160.699 23.7356C180.691 -7.21195 225.947 -7.25073 245.993 23.6625C257.693 41.7059 279.324 50.6442 300.348 46.1227Z" stroke="#7A7A7A" stroke-opacity="0.2"/>
<defs>
<radialGradient id="paint0_radial_531_473" cx="0" cy="0" r="1" gradientUnits="userSpaceOnUse" gradientTransform="translate(167.42 368.206) rotate(-101.042) scale(370.121)">
<stop stop-color="#00A3FF"/>
<stop offset="1" stop-color="#DAFDFF"/>
</radialGradient>
</defs>
</svg>
