<svg width="98" height="95" viewBox="0 0 98 95" fill="none" xmlns="http://www.w3.org/2000/svg">
<path d="M92.7411 59.4312C95.248 69.6018 88.1149 79.7483 77.452 81.1793C72.708 81.816 68.3526 84.3177 65.4305 88.038C58.9155 96.3324 46.372 97.4177 38.7644 90.2035C35.357 86.9723 30.743 85.2262 25.968 85.3632C15.2817 85.6698 6.84042 76.6921 7.96541 66.3156C8.46803 61.6795 7.04615 57.0236 4.02027 53.4496C-2.75353 45.4486 -0.719915 33.3191 8.25318 27.5666C12.2758 24.9878 15.1583 20.8876 16.1673 16.309C18.4182 6.09572 29.3076 -0.157165 39.4426 3.06259C43.9699 4.50086 48.951 4.09397 53.2129 1.9526C62.7521 -2.84025 74.4301 1.53325 78.0236 11.3159C79.6293 15.6872 82.9819 19.2277 87.3193 21.136C97.0033 25.3965 100.526 37.1433 94.9436 46.0567C92.4398 50.0545 91.6257 54.9063 92.7411 59.4312Z" fill="white" fill-opacity="0.15"/>
</svg>
