<svg width="112" height="69" viewBox="0 0 112 69" fill="none" xmlns="http://www.w3.org/2000/svg">
<ellipse cx="15.1992" cy="14.5075" rx="15.1992" ry="14.5075" transform="matrix(0.982915 0.19135 -0.196464 0.981906 68.1771 37.3049)" fill="#FFD15A" fill-opacity="0.46"/>
<ellipse cx="88.1525" cy="22.3733" rx="23.1448" ry="22.3733" fill="#FFD15A"/>
<path fill-rule="evenodd" clip-rule="evenodd" d="M97.1176 13.763C98.2777 14.7659 98.2777 16.3918 97.1176 17.3946L83.8139 28.8947L78.2124 30.1053L79.6128 25.3313L92.9218 13.7677C94.076 12.7648 95.9521 12.7607 97.1122 13.7584C97.114 13.76 97.1158 13.7615 97.1176 13.763Z" stroke="#E3A504" stroke-width="2" stroke-linecap="round" stroke-linejoin="round"/>
<path d="M86.6144 30.1065H97.8175" stroke="#E3A504" stroke-width="2" stroke-linecap="round" stroke-linejoin="round"/>
<path d="M95.0165 16.7886L96.4169 17.9991" stroke="#E3A504" stroke-width="2" stroke-linecap="round" stroke-linejoin="round"/>
<ellipse cx="31.1438" cy="30.1592" rx="31.1438" ry="30.1592" transform="matrix(0.982915 0.19135 -0.196464 0.981906 6.49911 2.24232)" fill="#FFD15A" fill-opacity="0.27"/>
</svg>
