<svg width="373" height="373" viewBox="0 0 373 373" fill="none" xmlns="http://www.w3.org/2000/svg">
<path d="M17.6336 123.019C17.1725 92.4078 35.8282 64.7497 64.3829 53.7101L76.6847 48.9542C86.5345 45.1461 95.4427 39.2499 102.797 31.6709L111.981 22.2054C133.3 0.234175 166.049 -6.13155 194.047 6.25356L206.108 11.5892C215.766 15.8614 226.234 17.9913 236.793 17.8322L249.981 17.6335C280.592 17.1724 308.25 35.8281 319.29 64.3828L324.046 76.6846C327.854 86.5344 333.75 95.4427 341.329 102.797L350.794 111.981C372.766 133.3 379.131 166.049 366.746 194.047L361.411 206.108C357.138 215.766 355.009 226.234 355.168 236.793L355.366 249.981C355.827 280.592 337.172 308.25 308.617 319.29L296.315 324.046C286.465 327.854 277.557 333.75 270.203 341.329L261.019 350.794C239.699 372.766 206.951 379.131 178.953 366.746L166.892 361.41C157.234 357.138 146.766 355.008 136.206 355.168L123.019 355.366C92.4079 355.827 64.7498 337.172 53.7102 308.617L48.9543 296.315C45.1462 286.465 39.25 277.557 31.6711 270.203L22.2055 261.018C0.234273 239.699 -6.13144 206.95 6.25367 178.953L11.5893 166.891C15.8615 157.234 17.9913 146.766 17.8323 136.206L17.6336 123.019Z" fill="url(#paint0_radial_930_2629)" fill-opacity="0.2"/>
<path d="M18.1344 123.011C17.6765 92.6099 36.2044 65.1412 64.5635 54.1773L76.8653 49.4213C86.7826 45.5872 95.7518 39.6506 103.156 32.0198L112.341 22.5542C133.514 0.733466 166.038 -5.58866 193.844 6.7116L205.906 12.0473C215.629 16.3487 226.169 18.4932 236.801 18.333L249.989 18.1343C280.39 17.6764 307.859 36.2043 318.822 64.5634L323.578 76.8652C327.413 86.7825 333.349 95.7517 340.98 103.156L350.446 112.341C372.266 133.514 378.588 166.038 366.288 193.844L360.952 205.906C356.651 215.629 354.507 226.169 354.667 236.801L354.865 249.988C355.323 280.39 336.796 307.858 308.436 318.822L296.135 323.578C286.217 327.412 277.248 333.349 269.844 340.98L260.659 350.445C239.486 372.266 206.961 378.588 179.156 366.288L167.094 360.952C157.37 356.651 146.83 354.507 136.199 354.667L123.011 354.865C92.61 355.323 65.1413 336.795 54.1774 308.436L49.4214 296.135C45.5873 286.217 39.6507 277.248 32.0199 269.844L22.5543 260.659C0.733558 239.486 -5.58856 206.961 6.71172 179.156L12.0474 167.094C16.3489 157.37 18.4933 146.83 18.3331 136.199L18.1344 123.011Z" stroke="#7A7A7A" stroke-opacity="0.2"/>
<defs>
<radialGradient id="paint0_radial_930_2629" cx="0" cy="0" r="1" gradientUnits="userSpaceOnUse" gradientTransform="translate(84.9919 170.882) rotate(-7.30698) scale(351.133)">
<stop/>
<stop offset="1" stop-color="#EAFFDA"/>
</radialGradient>
</defs>
</svg>
