<svg width="15" height="15" viewBox="0 0 15 15" fill="none" xmlns="http://www.w3.org/2000/svg">
<mask id="mask0_937_2984" style="mask-type:alpha" maskUnits="userSpaceOnUse" x="-3" y="-3" width="21" height="21">
<rect x="-2.5" y="-2.5" width="20" height="20" fill="#D9D9D9"/>
</mask>
<g mask="url(#mask0_937_2984)">
<path d="M7.5 11.6667C7.73611 11.6667 7.93403 11.5868 8.09375 11.4271C8.25347 11.2674 8.33333 11.0694 8.33333 10.8333C8.33333 10.5972 8.25347 10.3993 8.09375 10.2396C7.93403 10.0799 7.73611 10 7.5 10C7.26389 10 7.06597 10.0799 6.90625 10.2396C6.74653 10.3993 6.66667 10.5972 6.66667 10.8333C6.66667 11.0694 6.74653 11.2674 6.90625 11.4271C7.06597 11.5868 7.26389 11.6667 7.5 11.6667ZM6.66667 8.33333H8.33333V3.33333H6.66667V8.33333ZM4.375 15L0 10.625V4.375L4.375 0H10.625L15 4.375V10.625L10.625 15H4.375ZM5.08333 13.3333H9.91667L13.3333 9.91667V5.08333L9.91667 1.66667H5.08333L1.66667 5.08333V9.91667L5.08333 13.3333Z" fill="#051522" fill-opacity="0.64"/>
</g>
</svg>
