<svg width="332" height="332" viewBox="0 0 332 332" fill="none" xmlns="http://www.w3.org/2000/svg">
<path d="M132.549 20.1972C148.251 -4.06361 183.749 -4.06361 199.451 20.1972C209.341 35.479 227.645 43.0607 245.445 39.2486C273.703 33.1967 298.803 58.297 292.751 86.555C288.939 104.355 296.521 122.659 311.803 132.549C336.063 148.251 336.063 183.748 311.803 199.451C296.521 209.341 288.939 227.645 292.751 245.445C298.803 273.703 273.703 298.803 245.445 292.751C227.645 288.939 209.341 296.521 199.451 311.803C183.749 336.063 148.251 336.063 132.549 311.803C122.659 296.521 104.355 288.939 86.5551 292.751C58.2971 298.803 33.1968 273.703 39.2487 245.445C43.0608 227.645 35.4791 209.341 20.1973 199.451C-4.06349 183.748 -4.06349 148.251 20.1973 132.549C35.4791 122.659 43.0608 104.355 39.2487 86.555C33.1968 58.297 58.2971 33.1967 86.5551 39.2486C104.355 43.0607 122.659 35.479 132.549 20.1972Z" stroke="#7A7A7A" stroke-opacity="0.2" stroke-width="4"/>
</svg>
