<svg width="17" height="17" viewBox="0 0 17 17" fill="none" xmlns="http://www.w3.org/2000/svg">
<mask id="mask0_208_588" style="mask-type:alpha" maskUnits="userSpaceOnUse" x="-2" y="-2" width="21" height="21">
<rect x="-1.69985" y="-1.69985" width="20.4002" height="20.4002" fill="#D9D9D9"/>
</mask>
<g mask="url(#mask0_208_588)">
<path d="M7.65007 12.7501H9.35009V9.35009H12.7501V7.65007H9.35009V4.25004H7.65007V7.65007H4.25004V9.35009H7.65007V12.7501ZM8.50008 17.0002C7.32424 17.0002 6.21923 16.777 5.18505 16.3308C4.15087 15.8845 3.25128 15.2789 2.48627 14.5139C1.72127 13.7489 1.11564 12.8493 0.669382 11.8151C0.223127 10.7809 0 9.67593 0 8.50008C0 7.32424 0.223127 6.21923 0.669382 5.18505C1.11564 4.15087 1.72127 3.25128 2.48627 2.48627C3.25128 1.72127 4.15087 1.11564 5.18505 0.669382C6.21923 0.223127 7.32424 0 8.50008 0C9.67593 0 10.7809 0.223127 11.8151 0.669382C12.8493 1.11564 13.7489 1.72127 14.5139 2.48627C15.2789 3.25128 15.8845 4.15087 16.3308 5.18505C16.777 6.21923 17.0002 7.32424 17.0002 8.50008C17.0002 9.67593 16.777 10.7809 16.3308 11.8151C15.8845 12.8493 15.2789 13.7489 14.5139 14.5139C13.7489 15.2789 12.8493 15.8845 11.8151 16.3308C10.7809 16.777 9.67593 17.0002 8.50008 17.0002ZM8.50008 15.3001C10.3984 15.3001 12.0064 14.6414 13.3239 13.3239C14.6414 12.0064 15.3001 10.3984 15.3001 8.50008C15.3001 6.60173 14.6414 4.9938 13.3239 3.67629C12.0064 2.35877 10.3984 1.70002 8.50008 1.70002C6.60173 1.70002 4.9938 2.35877 3.67629 3.67629C2.35877 4.9938 1.70002 6.60173 1.70002 8.50008C1.70002 10.3984 2.35877 12.0064 3.67629 13.3239C4.9938 14.6414 6.60173 15.3001 8.50008 15.3001Z" fill="#051522" fill-opacity="0.45"/>
</g>
</svg>
