<svg width="17" height="17" viewBox="0 0 17 17" fill="none" xmlns="http://www.w3.org/2000/svg">
<mask id="mask0_435_69" style="mask-type:alpha" maskUnits="userSpaceOnUse" x="-2" y="-2" width="21" height="21">
<rect x="-1.7003" y="-1.6998" width="20.3996" height="20.3996" fill="#D9D9D9"/>
</mask>
<g mask="url(#mask0_435_69)">
<path d="M5.0999 10.1998H10.1998C10.4406 10.1998 10.6425 10.1183 10.8054 9.95543C10.9683 9.79252 11.0498 9.59065 11.0498 9.34982V7.64985L12.7498 9.34982V4.24992L11.0498 5.94988V4.24992C11.0498 4.00909 10.9683 3.80722 10.8054 3.6443C10.6425 3.48139 10.4406 3.39993 10.1998 3.39993H5.0999C4.85907 3.39993 4.6572 3.48139 4.49429 3.6443C4.33137 3.80722 4.24992 4.00909 4.24992 4.24992V9.34982C4.24992 9.59065 4.33137 9.79252 4.49429 9.95543C4.6572 10.1183 4.85907 10.1998 5.0999 10.1998ZM0 16.9997V1.69997C0 1.23248 0.166455 0.832275 0.499365 0.499365C0.832275 0.166455 1.23248 0 1.69997 0H15.2997C15.7672 0 16.1674 0.166455 16.5003 0.499365C16.8332 0.832275 16.9997 1.23248 16.9997 1.69997V11.8998C16.9997 12.3673 16.8332 12.7675 16.5003 13.1004C16.1674 13.4333 15.7672 13.5997 15.2997 13.5997H3.39993L0 16.9997ZM2.67745 11.8998H15.2997V1.69997H1.69997V12.856L2.67745 11.8998Z" fill="#503351" fill-opacity="0.45"/>
</g>
</svg>
