<svg width="17" height="17" viewBox="0 0 17 17" fill="none" xmlns="http://www.w3.org/2000/svg">
<mask id="mask0_937_2876" style="mask-type:alpha" maskUnits="userSpaceOnUse" x="-2" y="-2" width="21" height="21">
<rect x="-1.6993" y="-1.7003" width="20.3996" height="20.3996" fill="#D9D9D9"/>
</mask>
<g mask="url(#mask0_937_2876)">
<path d="M5.0999 11.8998H15.2997V9.34982H13.1322C12.8347 9.87397 12.4239 10.2883 11.8998 10.5929C11.3756 10.8975 10.809 11.0498 10.1998 11.0498C9.60481 11.0498 9.04524 10.8975 8.52108 10.5929C7.99693 10.2883 7.57902 9.87397 7.26736 9.34982H5.0999V11.8998ZM10.1998 9.34982C10.6815 9.34982 11.0852 9.18336 11.411 8.85045C11.7369 8.51754 11.8998 8.11734 11.8998 7.64985H15.2997V1.69997H5.0999V7.64985H8.49983C8.49983 8.11734 8.66629 8.51754 8.9992 8.85045C9.33211 9.18336 9.73231 9.34982 10.1998 9.34982ZM5.0999 13.5997C4.63241 13.5997 4.23221 13.4333 3.8993 13.1004C3.56639 12.7675 3.39993 12.3673 3.39993 11.8998V1.69997C3.39993 1.23248 3.56639 0.832275 3.8993 0.499365C4.23221 0.166455 4.63241 0 5.0999 0H15.2997C15.7672 0 16.1674 0.166455 16.5003 0.499365C16.8332 0.832275 16.9997 1.23248 16.9997 1.69997V11.8998C16.9997 12.3673 16.8332 12.7675 16.5003 13.1004C16.1674 13.4333 15.7672 13.5997 15.2997 13.5997H5.0999ZM1.69997 16.9997C1.23248 16.9997 0.832275 16.8332 0.499365 16.5003C0.166455 16.1674 0 15.7672 0 15.2997V3.39993H1.69997V15.2997H13.5997V16.9997H1.69997Z" fill="#051522"/>
</g>
</svg>
