<svg width="17" height="17" viewBox="0 0 17 17" fill="none" xmlns="http://www.w3.org/2000/svg">
<mask id="mask0_937_2890" style="mask-type:alpha" maskUnits="userSpaceOnUse" x="-2" y="-2" width="21" height="21">
<rect x="-1.70244" y="-1.70194" width="20.4253" height="20.4253" fill="#D9D9D9"/>
</mask>
<g mask="url(#mask0_937_2890)">
<path d="M10.4254 16.5105C10.0992 16.8367 9.69494 16.9998 9.21268 16.9998C8.73041 16.9998 8.32616 16.8367 7.99992 16.5105L0.510633 9.02119C0.354607 8.86516 0.230494 8.68077 0.138297 8.468C0.0460988 8.25524 0 8.02829 0 7.78716V1.70211C0 1.23403 0.166665 0.833325 0.499995 0.499995C0.833325 0.166665 1.23403 0 1.70211 0H7.78716C8.02829 0 8.25524 0.0460988 8.468 0.138297C8.68077 0.230494 8.86516 0.354607 9.02119 0.510633L16.5105 8.0212C16.8367 8.34744 16.9998 8.74814 16.9998 9.22332C16.9998 9.69849 16.8367 10.0992 16.5105 10.4254L10.4254 16.5105ZM9.21268 15.319L15.2977 9.23395L7.78716 1.70211H1.70211V7.78716L9.21268 15.319ZM3.82975 5.10633C4.18436 5.10633 4.48577 4.98222 4.734 4.734C4.98222 4.48577 5.10633 4.18436 5.10633 3.82975C5.10633 3.47514 4.98222 3.17373 4.734 2.9255C4.48577 2.67728 4.18436 2.55317 3.82975 2.55317C3.47514 2.55317 3.17373 2.67728 2.9255 2.9255C2.67728 3.17373 2.55317 3.47514 2.55317 3.82975C2.55317 4.18436 2.67728 4.48577 2.9255 4.734C3.17373 4.98222 3.47514 5.10633 3.82975 5.10633Z" fill="#051522" fill-opacity="0.64"/>
</g>
</svg>
