<svg width="20" height="23" viewBox="0 0 20 23" fill="none" xmlns="http://www.w3.org/2000/svg">
<mask id="mask0_367_1641" style="mask-type:alpha" maskUnits="userSpaceOnUse" x="-5" y="-4" width="30" height="31">
<rect x="-4.98648" y="-3.11674" width="29.9186" height="29.9186" fill="#D9D9D9"/>
</mask>
<g mask="url(#mask0_367_1641)">
<path d="M8.72625 22.9999C6.21226 22.6882 4.12939 21.5923 2.47763 19.712C0.825877 17.8317 0 15.6241 0 13.0894C0 11.7181 0.270098 10.404 0.810295 9.14698C1.35049 7.88998 2.11923 6.79401 3.11652 5.85905L4.89293 7.63547C4.10341 8.34188 3.50608 9.16256 3.10093 10.0975C2.69579 11.0325 2.49321 12.0298 2.49321 13.0894C2.49321 14.9177 3.07496 16.5331 4.23846 17.9356C5.40196 19.338 6.89789 20.195 8.72625 20.5067V22.9999ZM11.2195 22.9999V20.5067C13.027 20.1743 14.5178 19.312 15.6917 17.92C16.8656 16.5279 17.4525 14.9177 17.4525 13.0894C17.4525 11.0117 16.7253 9.24567 15.2709 7.79129C13.8166 6.33692 12.0505 5.60973 9.97286 5.60973H9.87936L11.2506 6.981L9.50538 8.72625L5.14225 4.36312L9.50538 0L11.2506 1.74525L9.87936 3.11652H9.97286C12.7569 3.11652 15.1151 4.08264 17.0474 6.01488C18.9796 7.94712 19.9457 10.3053 19.9457 13.0894C19.9457 15.6034 19.1198 17.8005 17.4681 19.6808C15.8163 21.5611 13.7335 22.6675 11.2195 22.9999Z" fill="#1C1B1F"/>
</g>
</svg>
