<svg width="363" height="363" viewBox="0 0 363 363" fill="none" xmlns="http://www.w3.org/2000/svg">
<path d="M69.5464 40.2372C84.9035 13.7841 115.113 -0.302824 145.249 4.93664L158.232 7.19388C168.627 9.00122 179.29 8.53565 189.488 5.82917L202.225 2.44901C231.789 -5.397 263.111 6.00343 280.716 31.0174L288.3 41.7937C294.372 50.4222 302.242 57.6331 311.367 62.9305L322.763 69.5465C349.216 84.9037 363.303 115.113 358.064 145.249L355.806 158.232C353.999 168.627 354.464 179.29 357.171 189.488L360.551 202.225C368.397 231.789 356.997 263.112 331.983 280.716L321.206 288.3C312.578 294.373 305.367 302.242 300.07 311.367L293.454 322.763C278.096 349.216 247.887 363.303 217.751 358.064L204.768 355.806C194.373 353.999 183.71 354.465 173.512 357.171L160.775 360.551C131.211 368.397 99.8885 356.997 82.2843 331.983L74.7001 321.207C68.6276 312.578 60.7583 305.367 51.6334 300.07L40.237 293.454C13.784 278.097 -0.303008 247.887 4.93646 217.751L7.19369 204.769C9.00103 194.373 8.53546 183.71 5.82899 173.512L2.44883 160.775C-5.39719 131.211 6.00324 99.8887 31.0172 82.2844L41.7935 74.7003C50.422 68.6278 57.6329 60.7585 62.9303 51.6335L69.5464 40.2372Z" fill="url(#paint0_radial_930_2676)" fill-opacity="0.2"/>
<path d="M69.9791 40.4885C85.2311 14.2166 115.234 0.226102 145.163 5.42968L158.146 7.68691C168.612 9.50664 179.349 9.03788 189.616 6.31287L202.353 2.93271C231.715 -4.85957 262.823 6.46277 280.306 31.3054L287.891 42.0817C294.005 50.7693 301.928 58.0296 311.115 63.3633L322.512 69.9793C348.784 85.2313 362.774 115.234 357.57 145.163L355.313 158.146C353.494 168.612 353.962 179.349 356.687 189.617L360.067 202.353C367.86 231.715 356.537 262.823 331.695 280.307L320.918 287.891C312.231 294.005 304.971 301.928 299.637 311.116L293.021 322.512C277.769 348.784 247.766 362.774 217.837 357.571L204.854 355.313C194.388 353.494 183.651 353.962 173.383 356.687L160.647 360.068C131.285 367.86 100.177 356.538 82.6935 331.695L75.1093 320.919C68.9952 312.231 61.072 304.971 51.8846 299.637L40.4883 293.021C14.2164 277.769 0.225917 247.766 5.4295 217.837L7.68672 204.854C9.50644 194.388 9.03768 183.652 6.31268 173.384L2.93251 160.647C-4.85976 131.285 6.46259 100.177 31.3052 82.6937L42.0816 75.1095C50.7691 68.9954 58.0294 61.0722 63.3631 51.8848L69.9791 40.4885Z" stroke="#7A7A7A" stroke-opacity="0.2"/>
<defs>
<radialGradient id="paint0_radial_930_2676" cx="0" cy="0" r="1" gradientUnits="userSpaceOnUse" gradientTransform="translate(102.603 115.89) rotate(23.693) scale(350.826)">
<stop/>
<stop offset="1" stop-color="#DAFDFF"/>
</radialGradient>
</defs>
</svg>
