<svg width="35" height="35" viewBox="0 0 35 35" fill="none" xmlns="http://www.w3.org/2000/svg">
<path d="M3.78551 10.3046C3.26217 6.51658 6.51627 3.26248 10.3043 3.78583C12.1583 4.04196 14.0268 3.3766 15.2974 2.00249L15.5235 1.75803C18.0488 -0.972969 22.5068 -0.44277 24.3306 2.79905C25.2446 4.4236 26.9255 5.47267 28.7866 5.577C32.5332 5.78702 34.9569 9.62587 33.5355 13.0988L33.4793 13.2362C32.7733 14.9612 32.9817 16.9314 34.0272 18.4745C36.1313 21.5796 34.6705 25.8511 31.0977 26.9929L30.8439 27.0741C29.0513 27.647 27.6466 29.0516 27.0738 30.8442L26.9926 31.098C25.8508 34.6708 21.5792 36.1316 18.4741 34.0276C16.9311 32.982 14.9609 32.7736 13.2359 33.4796L13.0985 33.5358C9.62556 34.9572 5.78671 32.5336 5.57668 28.7869C5.47235 26.9258 4.42329 25.2449 2.79873 24.3309C-0.443085 22.5072 -0.973286 18.0491 1.75771 15.5238L2.00218 15.2977C3.37628 14.0271 4.04164 12.1586 3.78551 10.3046Z" fill="white" fill-opacity="0.15"/>
</svg>
