<svg width="37" height="28" viewBox="0 0 37 28" fill="none" xmlns="http://www.w3.org/2000/svg">
<path d="M14.6536 1.83301C16.6356 -0.611161 20.3647 -0.611162 22.3467 1.83301L22.4352 1.94221C23.5295 3.29174 25.2771 3.93046 26.9837 3.60466L29.9146 3.04513C32.2518 2.59895 34.1749 4.88519 33.335 7.11138C32.7534 8.65325 33.5275 10.3879 35.0521 11.0134C37.6494 12.0792 37.6494 15.8081 35.0521 16.8739C33.5275 17.4995 32.7534 19.2341 33.335 20.776C34.1749 23.0021 32.2518 25.2884 29.9146 24.8422L26.9837 24.2827C25.2771 23.9569 23.5295 24.5956 22.4352 25.9451L22.3467 26.0543C20.3647 28.4985 16.6356 28.4985 14.6536 26.0543L14.5651 25.9451C13.4708 24.5956 11.7232 23.9569 10.0165 24.2827L7.08562 24.8422C4.74848 25.2884 2.82538 23.0021 3.66522 20.776C4.2469 19.2341 3.4728 17.4995 1.94821 16.8739C-0.649178 15.8081 -0.649179 12.0792 1.94821 11.0134C3.4728 10.3879 4.2469 8.65325 3.66522 7.11138C2.82538 4.88519 4.74848 2.59895 7.08562 3.04513L10.0165 3.60466C11.7232 3.93046 13.4708 3.29174 14.5651 1.94221L14.6536 1.83301Z" fill="white"/>
</svg>
