<svg width="34" height="34" viewBox="0 0 34 34" fill="none" xmlns="http://www.w3.org/2000/svg">
<path d="M13.4804 2.0332C15.0442 -0.677855 18.9569 -0.677856 20.5207 2.03319C21.4403 3.62746 23.3166 4.40464 25.0942 3.9276C28.117 3.11639 30.8837 5.88309 30.0725 8.90588C29.5954 10.6835 30.3726 12.5598 31.9669 13.4794C34.678 15.0432 34.678 18.9559 31.9669 20.5197C30.3726 21.4394 29.5954 23.3156 30.0725 25.0932C30.8837 28.116 28.117 30.8827 25.0942 30.0715C23.3166 29.5945 21.4403 30.3717 20.5207 31.9659C18.9569 34.677 15.0442 34.677 13.4804 31.9659C12.5607 30.3717 10.6845 29.5945 8.90686 30.0715C5.88407 30.8827 3.11737 28.116 3.92858 25.0932C4.40562 23.3156 3.62844 21.4394 2.03417 20.5197C-0.676879 18.9559 -0.676878 15.0432 2.03417 13.4794C3.62844 12.5598 4.40562 10.6835 3.92858 8.90588C3.11737 5.88309 5.88407 3.11639 8.90686 3.9276C10.6845 4.40464 12.5607 3.62746 13.4804 2.0332Z" fill="white"/>
</svg>
