<svg width="35" height="35" viewBox="0 0 35 35" fill="none" xmlns="http://www.w3.org/2000/svg">
<path d="M3.78563 10.3046C3.26229 6.51658 6.51639 3.26248 10.3045 3.78583C12.1584 4.04196 14.0269 3.3766 15.2976 2.00249L15.5236 1.75803C18.0489 -0.972969 22.507 -0.44277 24.3307 2.79905C25.2447 4.4236 26.9256 5.47267 28.7867 5.577C32.5334 5.78702 34.9571 9.62587 33.5357 13.0988L33.4794 13.2362C32.7734 14.9612 32.9818 16.9314 34.0274 18.4745C36.1314 21.5796 34.6706 25.8511 31.0978 26.9929L30.844 27.0741C29.0514 27.647 27.6468 29.0516 27.0739 30.8442L26.9928 31.098C25.8509 34.6708 21.5794 36.1316 18.4743 34.0276C16.9312 32.982 14.961 32.7736 13.236 33.4796L13.0986 33.5358C9.62568 34.9572 5.78683 32.5336 5.5768 28.7869C5.47248 26.9258 4.42341 25.2449 2.79886 24.3309C-0.442961 22.5072 -0.973162 18.0491 1.75783 15.5238L2.0023 15.2977C3.37641 14.0271 4.04177 12.1586 3.78563 10.3046Z" fill="white" fill-opacity="0.15"/>
</svg>
