<svg width="37" height="28" viewBox="0 0 37 28" fill="none" xmlns="http://www.w3.org/2000/svg">
<path d="M9.87277 2.63271C11.6698 -0.222433 15.7966 -0.853827 19.0849 1.22327L19.3554 1.39412C20.823 2.32114 22.5576 2.68136 24.1491 2.38959L27.0268 1.86205C29.7396 1.36471 32.4827 3.71272 32.2866 6.34489C32.1718 7.8875 33.1108 9.46728 34.6381 10.2853C37.4954 11.8157 37.8368 15.5138 35.2425 16.832L34.1097 17.4077C32.7514 18.0979 31.9619 19.4506 32.0219 20.9849L32.0298 21.1868C32.1428 24.075 29.5299 26.0772 26.4592 25.4554L24.0889 24.9754C22.2796 24.609 20.4766 24.8849 19.039 25.7481L17.1557 26.8788C14.7159 28.3437 11.1768 27.2827 9.61056 24.6169L9.50111 24.4306C8.66908 23.0144 7.16753 22.0122 5.5304 21.7802L4.16509 21.5868C1.03831 21.1439 -0.787766 17.673 0.932368 15.4423C1.85187 14.2498 1.79477 12.5351 0.798494 11.1625C-0.901472 8.82043 0.24201 5.87778 3.00239 5.53773L5.93044 5.17702C7.54984 4.97753 8.92291 4.14183 9.72495 2.86756L9.87277 2.63271Z" fill="white" fill-opacity="0.15"/>
</svg>
