<svg width="24" height="17" viewBox="0 0 24 17" fill="none" xmlns="http://www.w3.org/2000/svg">
<mask id="mask0_976_445" style="mask-type:alpha" maskUnits="userSpaceOnUse" x="0" y="-4" width="24" height="24">
<rect y="-4" width="24" height="24" fill="#D9D9D9"/>
</mask>
<g mask="url(#mask0_976_445)">
<path d="M12 17L0 5C1.6 3.36667 3.43333 2.125 5.5 1.275C7.56667 0.425 9.73333 0 12 0C14.2833 0 16.4583 0.425 18.525 1.275C20.5917 2.125 22.4167 3.36667 24 5L12 17ZM4.35 6.5C5.43333 5.71667 6.62083 5.10417 7.9125 4.6625C9.20417 4.22083 10.5667 4 12 4C13.4333 4 14.7958 4.22083 16.0875 4.6625C17.3792 5.10417 18.5667 5.71667 19.65 6.5L21.1 5.05C19.8 4.06667 18.3792 3.3125 16.8375 2.7875C15.2958 2.2625 13.6833 2 12 2C10.3167 2 8.70417 2.2625 7.1625 2.7875C5.62083 3.3125 4.2 4.06667 2.9 5.05L4.35 6.5Z" fill="white" fill-opacity="0.8"/>
</g>
</svg>
