<svg width="378" height="378" viewBox="0 0 378 378" fill="none" xmlns="http://www.w3.org/2000/svg">
<path d="M148.314 14.7797C172.764 -2.25316 205.236 -2.25315 229.685 14.7797L240.593 22.3784C249.502 28.5848 259.649 32.788 270.337 34.699L283.423 37.0387C312.756 42.2831 335.717 65.2441 340.961 94.5766L343.301 107.662C345.212 118.351 349.415 128.498 355.622 137.407L363.22 148.315C380.253 172.764 380.253 205.236 363.22 229.685L355.621 240.593C349.415 249.502 345.212 259.649 343.301 270.338L340.961 283.423C335.717 312.756 312.756 335.717 283.423 340.961L270.337 343.301C259.649 345.212 249.502 349.415 240.593 355.622L229.685 363.22C205.236 380.253 172.764 380.253 148.314 363.22L137.407 355.622C128.498 349.415 118.35 345.212 107.662 343.301L94.5765 340.961C65.2439 335.717 42.283 312.756 37.0386 283.423L34.6989 270.338C32.7879 259.649 28.5847 249.502 22.3782 240.593L14.7796 229.685C-2.25328 205.236 -2.25327 172.764 14.7796 148.315L22.3783 137.407C28.5847 128.498 32.7879 118.351 34.6989 107.662L37.0386 94.5766C42.283 65.2441 65.244 42.2831 94.5765 37.0387L107.662 34.699C118.351 32.788 128.498 28.5848 137.407 22.3784L148.314 14.7797Z" stroke="#7A7A7A" stroke-opacity="0.2" stroke-width="4"/>
</svg>
