<svg width="19" height="14" viewBox="0 0 19 14" fill="none" xmlns="http://www.w3.org/2000/svg">
<mask id="mask0_937_2901" style="mask-type:alpha" maskUnits="userSpaceOnUse" x="-1" y="-4" width="21" height="22">
<rect x="-0.863314" y="-3.45478" width="20.7276" height="20.7276" fill="#D9D9D9"/>
</mask>
<g mask="url(#mask0_937_2901)">
<path d="M0 13.8184V11.4002C0 10.9108 0.125949 10.461 0.377848 10.0507C0.629746 9.64051 0.964411 9.32744 1.38184 9.11153C2.27428 8.6653 3.18112 8.33064 4.10235 8.10753C5.02357 7.88442 5.9592 7.77287 6.90921 7.77287C7.85923 7.77287 8.79485 7.88442 9.71608 8.10753C10.6373 8.33064 11.5441 8.6653 12.4366 9.11153C12.854 9.32744 13.1887 9.64051 13.4406 10.0507C13.6925 10.461 13.8184 10.9108 13.8184 11.4002V13.8184H0ZM15.5457 13.8184V11.2275C15.5457 10.5941 15.3694 9.98597 15.0167 9.40301C14.6641 8.82004 14.1639 8.31984 13.5162 7.90241C14.2503 7.98878 14.9412 8.13632 15.5889 8.34503C16.2367 8.55375 16.8412 8.80925 17.4026 9.11153C17.9208 9.39941 18.3166 9.71968 18.5901 10.0723C18.8636 10.425 19.0003 10.81 19.0003 11.2275V13.8184H15.5457ZM6.90921 6.90921C5.9592 6.90921 5.14593 6.57095 4.4694 5.89442C3.79287 5.2179 3.45461 4.40462 3.45461 3.45461C3.45461 2.50459 3.79287 1.69132 4.4694 1.01479C5.14593 0.338264 5.9592 0 6.90921 0C7.85923 0 8.6725 0.338264 9.34903 1.01479C10.0256 1.69132 10.3638 2.50459 10.3638 3.45461C10.3638 4.40462 10.0256 5.2179 9.34903 5.89442C8.6725 6.57095 7.85923 6.90921 6.90921 6.90921ZM15.5457 3.45461C15.5457 4.40462 15.2075 5.2179 14.5309 5.89442C13.8544 6.57095 13.0411 6.90921 12.0911 6.90921C11.9328 6.90921 11.7313 6.89122 11.4866 6.85524C11.2419 6.81925 11.0403 6.77967 10.882 6.73648C11.2707 6.27587 11.5693 5.76488 11.7781 5.2035C11.9868 4.64213 12.0911 4.05916 12.0911 3.45461C12.0911 2.85005 11.9868 2.26709 11.7781 1.70571C11.5693 1.14434 11.2707 0.633345 10.882 0.17273C11.0835 0.100759 11.285 0.0539782 11.4866 0.0323869C11.6881 0.0107956 11.8896 0 12.0911 0C13.0411 0 13.8544 0.338264 14.5309 1.01479C15.2075 1.69132 15.5457 2.50459 15.5457 3.45461ZM1.7273 12.0911H12.0911V11.4002C12.0911 11.2419 12.0515 11.0979 11.9724 10.9684C11.8932 10.8388 11.7888 10.7381 11.6593 10.6661C10.882 10.2775 10.0975 9.98597 9.30585 9.79165C8.51417 9.59733 7.71529 9.50017 6.90921 9.50017C6.10314 9.50017 5.30426 9.59733 4.51258 9.79165C3.7209 9.98597 2.93642 10.2775 2.15913 10.6661C2.02958 10.7381 1.92522 10.8388 1.84606 10.9684C1.76689 11.0979 1.7273 11.2419 1.7273 11.4002V12.0911ZM6.90921 5.18191C7.38422 5.18191 7.79086 5.01278 8.12912 4.67451C8.46739 4.33625 8.63652 3.92962 8.63652 3.45461C8.63652 2.9796 8.46739 2.57296 8.12912 2.2347C7.79086 1.89644 7.38422 1.7273 6.90921 1.7273C6.43421 1.7273 6.02757 1.89644 5.68931 2.2347C5.35104 2.57296 5.18191 2.9796 5.18191 3.45461C5.18191 3.92962 5.35104 4.33625 5.68931 4.67451C6.02757 5.01278 6.43421 5.18191 6.90921 5.18191Z" fill="#051522" fill-opacity="0.64"/>
</g>
</svg>
