<svg width="387" height="387" viewBox="0 0 387 387" fill="none" xmlns="http://www.w3.org/2000/svg">
<path d="M60.9657 59.7688C73.0467 31.6208 101.383 13.9776 131.973 15.5567L148.276 16.3982C158.828 16.9429 169.373 15.1957 179.186 11.2768L194.346 5.22183C222.792 -6.13922 255.305 1.42177 275.819 24.1689L286.752 36.2922C293.828 44.1388 302.52 50.3596 312.229 54.5269L327.231 60.9656C355.379 73.0466 373.022 101.383 371.443 131.973L370.602 148.276C370.057 158.828 371.804 169.373 375.723 179.186L381.778 194.346C393.139 222.792 385.578 255.305 362.831 275.819L350.708 286.752C342.861 293.828 336.64 302.52 332.473 312.229L326.034 327.231C313.953 355.379 285.617 373.022 255.027 371.443L238.724 370.602C228.172 370.057 217.627 371.804 207.814 375.723L192.654 381.778C164.208 393.139 131.695 385.578 111.181 362.831L100.248 350.708C93.1719 342.861 84.4801 336.64 74.7705 332.473L59.7689 326.034C31.6209 313.953 13.9777 285.617 15.5568 255.027L16.3983 238.724C16.943 228.172 15.1958 217.627 11.2769 207.814L5.22191 192.654C-6.13913 164.207 1.42187 131.695 24.169 111.181L36.2923 100.248C44.1388 93.1718 50.3597 84.48 54.527 74.7704L60.9657 59.7688Z" fill="url(#paint0_radial_774_284)"/>
<path d="M61.4262 59.9664C73.4245 32.0113 101.566 14.4889 131.947 16.0572L148.251 16.8987C158.875 17.4471 169.492 15.688 179.372 11.7422L194.532 5.68723C222.783 -5.59601 255.073 1.9132 275.447 24.5045L286.38 36.6278C293.504 44.5281 302.256 50.7916 312.032 54.9874L327.033 61.4261C354.989 73.4244 372.511 101.566 370.943 131.947L370.101 148.25C369.553 158.875 371.312 169.492 375.258 179.371L381.313 194.532C392.596 222.783 385.087 255.073 362.495 275.447L350.372 286.38C342.472 293.504 336.208 302.256 332.012 312.032L325.574 327.033C313.576 354.989 285.434 372.511 255.053 370.943L238.749 370.101C228.125 369.553 217.508 371.312 207.628 375.258L192.468 381.313C164.217 392.596 131.927 385.087 111.553 362.495L100.62 350.372C93.4956 342.472 84.7443 336.208 74.9682 332.012L59.9665 325.574C32.0114 313.575 14.489 285.433 16.0573 255.053L16.8988 238.749C17.4472 228.125 15.6881 217.508 11.7423 207.628L5.68731 192.468C-5.59591 164.216 1.9133 131.927 24.5046 111.553L36.6279 100.62C44.5282 93.4955 50.7917 84.7442 54.9875 74.9681L61.4262 59.9664Z" stroke="#7A7A7A" stroke-opacity="0.2"/>
<defs>
<radialGradient id="paint0_radial_774_284" cx="0" cy="0" r="1" gradientUnits="userSpaceOnUse" gradientTransform="translate(103.795 135.603) rotate(16.7849) scale(365.028)">
<stop stop-color="#92D8FF"/>
<stop offset="1" stop-color="#DAFDFF"/>
</radialGradient>
</defs>
</svg>
