<svg width="15" height="15" viewBox="0 0 15 15" fill="none" xmlns="http://www.w3.org/2000/svg">
<mask id="mask0_937_2972" style="mask-type:alpha" maskUnits="userSpaceOnUse" x="-3" y="-3" width="21" height="21">
<rect x="-2.5" y="-2.5" width="20" height="20" fill="#D9D9D9"/>
</mask>
<g mask="url(#mask0_937_2972)">
<path d="M2.5 12.5L12.5 7.5L2.5 2.5V12.5ZM4.16667 10V8.33333L6.66667 7.5L4.16667 6.66667V5L9.58333 7.5L4.16667 10ZM1.66667 15C1.20833 15 0.815972 14.8368 0.489583 14.5104C0.163194 14.184 0 13.7917 0 13.3333V1.66667C0 1.20833 0.163194 0.815972 0.489583 0.489583C0.815972 0.163194 1.20833 0 1.66667 0H13.3333C13.7917 0 14.184 0.163194 14.5104 0.489583C14.8368 0.815972 15 1.20833 15 1.66667V13.3333C15 13.7917 14.8368 14.184 14.5104 14.5104C14.184 14.8368 13.7917 15 13.3333 15H1.66667ZM1.66667 13.3333H13.3333V1.66667H1.66667V13.3333Z" fill="#051522" fill-opacity="0.64"/>
</g>
</svg>
