<svg width="326" height="326" viewBox="0 0 326 326" fill="none" xmlns="http://www.w3.org/2000/svg">
<path d="M312.727 153.972C334.803 174.496 328.374 210.958 300.609 222.693C284.717 229.41 274.628 245.247 275.256 262.489C276.355 292.612 246.026 313.849 218.095 302.514C202.108 296.026 183.775 300.09 172.028 312.727C151.505 334.803 115.042 328.374 103.307 300.61C96.59 284.717 80.7527 274.628 63.5108 275.257C33.3881 276.355 12.1513 246.026 23.486 218.095C29.9739 202.108 25.9095 183.775 13.2732 172.028C-8.80346 151.505 -2.37412 115.042 25.3905 103.307C41.2827 96.5901 51.3721 80.7528 50.7434 63.5109C49.6451 33.3882 79.9743 12.1515 107.905 23.4862C123.892 29.974 142.225 25.9097 153.972 13.2733C174.495 -8.80334 210.958 -2.37399 222.693 25.3906C229.41 41.2828 245.247 51.3723 262.489 50.7436C292.612 49.6452 313.849 79.9744 302.514 107.905C296.026 123.892 300.09 142.225 312.727 153.972Z" fill="url(#paint0_radial_930_2628)" fill-opacity="0.2"/>
<path d="M312.386 154.339C334.197 174.615 327.845 210.639 300.415 222.232C284.331 229.03 274.12 245.058 274.757 262.507C275.842 292.268 245.878 313.249 218.283 302.051C202.104 295.485 183.55 299.598 171.661 312.386C151.385 334.197 115.361 327.845 103.768 300.415C96.9698 284.331 80.942 274.121 63.4926 274.757C33.7324 275.842 12.7512 245.878 23.9495 218.283C30.5154 202.104 26.4022 183.55 13.6137 171.662C-8.19723 151.385 -1.84526 115.362 25.5852 103.768C41.6686 96.97 51.8795 80.9421 51.2433 63.4927C50.1581 33.7325 80.1223 12.7513 107.717 23.9496C123.896 30.5156 142.45 26.4023 154.338 13.6138C174.615 -8.1971 210.639 -1.84513 222.232 25.5854C229.03 41.6688 245.058 51.8797 262.507 51.2434C292.268 50.1583 313.249 80.1225 302.05 107.717C295.484 123.896 299.598 142.45 312.386 154.339Z" stroke="#7A7A7A" stroke-opacity="0.2"/>
<defs>
<radialGradient id="paint0_radial_930_2628" cx="0" cy="0" r="1" gradientUnits="userSpaceOnUse" gradientTransform="translate(259.749 136.617) rotate(148.693) scale(342.857)">
<stop/>
<stop offset="1" stop-color="#DAFDFF"/>
</radialGradient>
</defs>
</svg>
