<svg width="264" height="264" viewBox="0 0 264 264" fill="none" xmlns="http://www.w3.org/2000/svg">
<g opacity="0.2">
<path d="M256.794 153.951C270.907 175.145 258.472 203.843 233.358 208.039C218.982 210.441 207.586 221.474 204.72 235.765C199.714 260.73 170.629 272.23 149.903 257.439C138.04 248.972 122.179 248.715 110.048 256.794C88.855 270.908 60.1566 258.473 55.9607 233.358C53.5589 218.983 42.5253 207.586 28.2352 204.721C3.26936 199.715 -8.23068 170.629 6.56105 149.903C15.0277 138.04 15.2843 122.179 7.20579 110.049C-6.9078 88.8553 5.52706 60.1569 30.6417 55.9609C45.0171 53.5592 56.4136 42.5255 59.279 28.2354C64.2852 3.26961 93.3708 -8.23045 114.097 6.5613C125.96 15.0279 141.82 15.2845 153.951 7.20604C175.144 -6.90755 203.843 5.52731 208.039 30.642C210.441 45.0173 221.474 56.4138 235.764 59.2793C260.73 64.2854 272.23 93.3711 257.438 114.097C248.972 125.96 248.715 141.82 256.794 153.951Z" fill="url(#paint0_radial_874_166)" fill-opacity="0.2"/>
<path d="M256.377 154.229C270.289 175.12 258.032 203.409 233.275 207.545C218.695 209.981 207.136 221.172 204.229 235.666C199.295 260.276 170.624 271.612 150.194 257.031C138.161 248.444 122.075 248.183 109.771 256.377C88.8798 270.289 60.5908 258.032 56.4546 233.276C54.0187 218.695 42.8276 207.136 28.3336 204.23C3.72396 199.295 -7.61202 170.624 6.96871 150.194C15.5561 138.162 15.8164 122.075 7.62264 109.771C-6.28961 88.88 5.96786 60.591 30.7242 56.4549C45.3047 54.0189 56.8637 42.8278 59.7701 28.3339C64.7049 3.72422 93.3755 -7.61179 113.806 6.96895C125.838 15.5564 141.925 15.8166 154.229 7.6229C175.12 -6.28936 203.409 5.96811 207.545 30.7245C209.981 45.3049 221.172 56.864 235.666 59.7704C260.276 64.7051 271.612 93.3758 257.031 113.806C248.443 125.838 248.183 141.925 256.377 154.229Z" stroke="#7A7A7A" stroke-opacity="0.2"/>
</g>
<defs>
<radialGradient id="paint0_radial_874_166" cx="0" cy="0" r="1" gradientUnits="userSpaceOnUse" gradientTransform="translate(216.669 129.3) rotate(162.12) scale(289.625)">
<stop/>
<stop offset="1" stop-color="#DAFDFF"/>
</radialGradient>
</defs>
</svg>
