<svg width="330" height="330" viewBox="0 0 330 330" fill="none" xmlns="http://www.w3.org/2000/svg">
<path d="M310.066 126.212C335.825 141.931 336.807 178.983 311.918 196.045C297.672 205.811 290.941 223.363 295.004 240.15C302.104 269.479 276.598 296.374 246.935 290.839C229.956 287.671 212.785 295.322 203.788 310.066C188.069 335.825 151.017 336.807 133.955 311.918C124.189 297.672 106.637 290.941 89.8495 295.004C60.5209 302.104 33.626 276.598 39.161 246.935C42.3291 229.955 34.6774 212.785 19.9336 203.787C-5.82484 188.069 -6.80737 151.016 18.0818 133.955C32.3281 124.189 39.0591 106.637 34.9955 89.8494C27.8963 60.5207 53.4016 33.6259 83.0653 39.1608C100.044 42.329 117.215 34.6772 126.212 19.9334C141.931 -5.82499 178.983 -6.80751 196.045 18.0816C205.811 32.3279 223.363 39.0589 240.15 34.9954C269.479 27.8962 296.374 53.4015 290.839 83.0651C287.671 100.044 295.323 117.215 310.066 126.212Z" fill="url(#paint0_radial_930_2582)" fill-opacity="0.2"/>
<path d="M309.806 126.64C335.254 142.169 336.225 178.776 311.635 195.632C297.217 205.515 290.405 223.279 294.518 240.268C301.532 269.244 276.333 295.815 247.027 290.347C229.843 287.14 212.466 294.884 203.36 309.805C187.831 335.254 151.224 336.225 134.368 311.635C124.485 297.217 106.721 290.405 89.7317 294.518C60.756 301.531 34.1849 276.333 39.6532 247.026C42.8595 229.843 35.1156 212.465 20.1944 203.36C-5.25402 187.831 -6.22472 151.224 18.3649 134.368C32.7826 124.484 39.5946 106.721 35.4822 89.7316C28.4684 60.7559 53.6668 34.1847 82.9734 39.6531C100.157 42.8593 117.534 35.1155 126.64 20.1942C142.169 -5.25417 178.776 -6.22487 195.632 18.3648C205.515 32.7825 223.279 39.5945 240.268 35.4821C269.244 28.4683 295.815 53.6666 290.347 82.9733C287.141 100.157 294.884 117.534 309.806 126.64Z" stroke="#7A7A7A" stroke-opacity="0.2"/>
<defs>
<radialGradient id="paint0_radial_930_2582" cx="0" cy="0" r="1" gradientUnits="userSpaceOnUse" gradientTransform="translate(254.63 119.779) rotate(137.174) scale(343.231)">
<stop/>
<stop offset="1" stop-color="#FFDAE3"/>
</radialGradient>
</defs>
</svg>
