<svg width="18" height="22" viewBox="0 0 18 22" fill="none" xmlns="http://www.w3.org/2000/svg">
<mask id="mask0_0_16" style="mask-type:alpha" maskUnits="userSpaceOnUse" x="-3" y="-1" width="24" height="24">
<rect x="-3" y="-1" width="24" height="24" fill="#D9D9D9"/>
</mask>
<g mask="url(#mask0_0_16)">
<path d="M2 22C1.45 22 0.979167 21.8042 0.5875 21.4125C0.195833 21.0208 0 20.55 0 20V2C0 1.45 0.195833 0.979167 0.5875 0.5875C0.979167 0.195833 1.45 0 2 0H16C16.55 0 17.0208 0.195833 17.4125 0.5875C17.8042 0.979167 18 1.45 18 2V20C18 20.55 17.8042 21.0208 17.4125 21.4125C17.0208 21.8042 16.55 22 16 22H2ZM2 17V20H16V17H2ZM7 19H11V18H7V19ZM2 15H16V5H2V15ZM2 3H16V2H2V3Z" fill="#051522" fill-opacity="0.64"/>
</g>
</svg>
