<svg width="24" height="24" viewBox="0 0 24 24" fill="none" xmlns="http://www.w3.org/2000/svg">
<mask id="mask0_1170_124" style="mask-type:alpha" maskUnits="userSpaceOnUse" x="0" y="0" width="24" height="24">
<rect width="24" height="24" fill="#D9D9D9"/>
</mask>
<g mask="url(#mask0_1170_124)">
<path d="M12.5 15C13.2 15 13.7917 14.7583 14.275 14.275C14.7583 13.7917 15 13.2 15 12.5V7H18V5H14V10.5C13.7833 10.3333 13.55 10.2083 13.3 10.125C13.05 10.0417 12.7833 10 12.5 10C11.8 10 11.2083 10.2417 10.725 10.725C10.2417 11.2083 10 11.8 10 12.5C10 13.2 10.2417 13.7917 10.725 14.275C11.2083 14.7583 11.8 15 12.5 15ZM8 18C7.45 18 6.97917 17.8042 6.5875 17.4125C6.19583 17.0208 6 16.55 6 16V4C6 3.45 6.19583 2.97917 6.5875 2.5875C6.97917 2.19583 7.45 2 8 2H20C20.55 2 21.0208 2.19583 21.4125 2.5875C21.8042 2.97917 22 3.45 22 4V16C22 16.55 21.8042 17.0208 21.4125 17.4125C21.0208 17.8042 20.55 18 20 18H8ZM8 16H20V4H8V16ZM4 22C3.45 22 2.97917 21.8042 2.5875 21.4125C2.19583 21.0208 2 20.55 2 20V6H4V20H18V22H4Z" fill="#686567" fill-opacity="0.45"/>
</g>
</svg>
