<svg width="322" height="322" viewBox="0 0 322 322" fill="none" xmlns="http://www.w3.org/2000/svg">
<path d="M305.069 203.81C318.822 230.7 300.273 262.828 270.11 264.362C252.845 265.24 237.917 276.694 232.601 293.144C223.312 321.882 187.478 331.484 165.064 311.24C152.235 299.653 133.58 297.197 118.189 305.069C91.3 318.822 59.1719 300.273 57.6377 270.109C56.7595 252.844 45.3056 237.917 28.856 232.6C0.117522 223.312 -9.48424 187.477 10.7596 165.064C22.3469 152.235 24.8028 133.58 16.9308 118.189C3.17779 91.2998 21.727 59.1717 51.8903 57.6375C69.1554 56.7593 84.0825 45.3053 89.3994 28.8557C98.6881 0.117276 134.522 -9.48448 156.936 10.7594C169.765 22.3467 188.419 24.8026 203.811 16.9305C230.7 3.17754 262.828 21.7267 264.362 51.89C265.24 69.1552 276.694 84.0823 293.144 89.3991C321.882 98.6879 331.484 134.522 311.24 156.936C299.653 169.765 297.197 188.419 305.069 203.81Z" fill="url(#paint0_radial_931_3692)" fill-opacity="0.2"/>
<path d="M304.623 204.039C318.21 230.604 299.885 262.346 270.084 263.862C252.611 264.75 237.505 276.342 232.124 292.99C222.947 321.382 187.544 330.868 165.4 310.868C152.416 299.141 133.538 296.656 117.961 304.623C91.3954 318.21 59.654 299.884 58.1382 270.084C57.2495 252.611 45.6577 237.504 29.0101 232.123C0.617502 222.947 -8.8687 187.544 11.1315 165.4C22.8583 152.416 25.3437 133.537 17.377 117.961C3.78949 91.3952 22.1154 59.6537 51.9157 58.138C69.3887 57.2492 84.4954 45.6574 89.8762 29.0099C99.0532 0.617262 134.456 -8.86893 156.6 11.1313C169.584 22.8581 188.462 25.3435 204.039 17.3767C230.605 3.78924 262.346 22.1152 263.862 51.9155C264.75 69.3884 276.342 84.4952 292.99 89.876C321.382 99.053 330.869 134.456 310.868 156.6C299.142 169.583 296.656 188.462 304.623 204.039Z" stroke="#7A7A7A" stroke-opacity="0.2"/>
<defs>
<radialGradient id="paint0_radial_931_3692" cx="0" cy="0" r="1" gradientUnits="userSpaceOnUse" gradientTransform="translate(261.136 169.315) rotate(168.693) scale(343.535)">
<stop/>
<stop offset="1" stop-color="#DAFDFF"/>
</radialGradient>
</defs>
</svg>
