<svg width="14" height="17" viewBox="0 0 14 17" fill="none" xmlns="http://www.w3.org/2000/svg">
<mask id="mask0_937_2978" style="mask-type:alpha" maskUnits="userSpaceOnUse" x="-4" y="-2" width="22" height="21">
<rect x="-3.3997" y="-1.69985" width="20.4002" height="20.4002" fill="#D9D9D9"/>
</mask>
<g mask="url(#mask0_937_2978)">
<path d="M1.70002 17.0002C1.23251 17.0002 0.8323 16.8337 0.49938 16.5008C0.16646 16.1679 0 15.7677 0 15.3001V1.70002C0 1.23251 0.16646 0.8323 0.49938 0.49938C0.8323 0.16646 1.23251 0 1.70002 0H8.50008L13.6001 5.10005V15.3001C13.6001 15.7677 13.4337 16.1679 13.1008 16.5008C12.7678 16.8337 12.3676 17.0002 11.9001 17.0002H1.70002ZM7.65007 5.95006V1.70002H1.70002V15.3001H11.9001V5.95006H7.65007Z" fill="#051522" fill-opacity="0.64"/>
</g>
</svg>
