<svg width="38" height="28" viewBox="0 0 38 28" fill="none" xmlns="http://www.w3.org/2000/svg">
<path d="M15.0058 1.85079C17.0554 -0.616577 20.842 -0.616575 22.8916 1.85079L22.9962 1.97672C24.1189 3.32832 25.8852 3.96645 27.6126 3.64455L30.8036 3.04989C33.1404 2.61441 35.0486 4.9118 34.1917 7.12904C33.5925 8.67961 34.379 10.4347 35.9221 11.0529C38.5554 12.1076 38.5554 15.8926 35.9221 16.9473C34.379 17.5655 33.5925 19.3206 34.1917 20.8711C35.0486 23.0884 33.1404 25.3858 30.8036 24.9503L27.6126 24.3556C25.8852 24.0337 24.1189 24.6719 22.9962 26.0235L22.8916 26.1494C20.842 28.6168 17.0554 28.6168 15.0058 26.1494L14.9012 26.0235C13.7784 24.6719 12.0121 24.0337 10.2848 24.3556L7.09378 24.9503C4.75695 25.3858 2.84872 23.0884 3.70561 20.8711C4.30485 19.3206 3.51836 17.5655 1.97522 16.9473C-0.658032 15.8926 -0.658032 12.1076 1.97522 11.0529C3.51836 10.4347 4.30485 8.67961 3.70561 7.12904C2.84872 4.9118 4.75696 2.61441 7.09379 3.04989L10.2848 3.64455C12.0121 3.96645 13.7784 3.32832 14.9012 1.97672L15.0058 1.85079Z" fill="white"/>
</svg>
