<svg width="17" height="17" viewBox="0 0 17 17" fill="none" xmlns="http://www.w3.org/2000/svg">
<mask id="mask0_208_612" style="mask-type:alpha" maskUnits="userSpaceOnUse" x="-2" y="-2" width="21" height="21">
<rect x="-1.70035" y="-1.69985" width="20.4002" height="20.4002" fill="#D9D9D9"/>
</mask>
<g mask="url(#mask0_208_612)">
<path d="M5.10005 10.2001H10.2001C10.4409 10.2001 10.6428 10.1186 10.8057 9.95572C10.9686 9.7928 11.0501 9.59093 11.0501 9.35009V7.65007L12.7501 9.35009V4.25004L11.0501 5.95006V4.25004C11.0501 4.00921 10.9686 3.80733 10.8057 3.64441C10.6428 3.48149 10.4409 3.40003 10.2001 3.40003H5.10005C4.85921 3.40003 4.65734 3.48149 4.49442 3.64441C4.3315 3.80733 4.25004 4.00921 4.25004 4.25004V9.35009C4.25004 9.59093 4.3315 9.7928 4.49442 9.95572C4.65734 10.1186 4.85921 10.2001 5.10005 10.2001ZM0 17.0002V1.70002C0 1.23251 0.16646 0.8323 0.49938 0.49938C0.8323 0.16646 1.23251 0 1.70002 0H15.3001C15.7677 0 16.1679 0.16646 16.5008 0.49938C16.8337 0.8323 17.0002 1.23251 17.0002 1.70002V11.9001C17.0002 12.3676 16.8337 12.7678 16.5008 13.1008C16.1679 13.4337 15.7677 13.6001 15.3001 13.6001H3.40003L0 17.0002ZM2.67753 11.9001H15.3001V1.70002H1.70002V12.8564L2.67753 11.9001Z" fill="#051522" fill-opacity="0.45"/>
</g>
</svg>
