<svg width="296" height="296" viewBox="0 0 296 296" fill="none" xmlns="http://www.w3.org/2000/svg">
<g opacity="0.2">
<path d="M56.2163 257.294C28.7377 246.424 10.9383 219.588 11.6128 190.046C11.8454 179.855 9.86817 169.735 5.81695 160.381C-5.92748 133.265 0.462205 101.703 21.8289 81.2904C29.1993 74.2491 34.9572 65.6949 38.7066 56.2163C49.576 28.7377 76.4118 10.9383 105.954 11.6127C116.145 11.8454 126.265 9.86813 135.619 5.81689C162.735 -5.92754 194.297 0.462142 214.71 21.8288C221.751 29.1992 230.305 34.9571 239.784 38.7065C267.263 49.576 285.062 76.4118 284.387 105.954C284.155 116.145 286.132 126.265 290.183 135.619C301.928 162.735 295.538 194.297 274.171 214.71C266.801 221.751 261.043 230.305 257.294 239.784C246.424 267.262 219.588 285.062 190.046 284.387C179.855 284.155 169.735 286.132 160.381 290.183C133.265 301.928 101.703 295.538 81.2905 274.171C74.2491 266.801 65.695 261.043 56.2163 257.294Z" fill="url(#paint0_radial_976_1402)" fill-opacity="0.2"/>
<path d="M56.4007 256.827C29.1173 246.035 11.4444 219.39 12.114 190.057C12.3484 179.794 10.357 169.602 6.27704 160.182C-5.38396 133.258 0.960336 101.921 22.1752 81.653C29.598 74.5616 35.3968 65.9467 39.1728 56.4007C49.9651 29.1173 76.6102 11.4443 105.943 12.114C116.206 12.3483 126.398 10.357 135.818 6.27698C162.742 -5.38401 194.079 0.96028 214.347 22.1752C221.439 29.598 230.053 35.3967 239.599 39.1728C266.883 49.965 284.556 76.6102 283.886 105.943C283.652 116.206 285.643 126.398 289.723 135.818C301.384 162.742 295.04 194.079 273.825 214.347C266.402 221.438 260.603 230.053 256.827 239.599C246.035 266.883 219.39 284.556 190.057 283.886C179.794 283.652 169.602 285.643 160.182 289.723C133.259 301.384 101.921 295.04 81.653 273.825C74.5617 266.402 65.9467 260.603 56.4007 256.827Z" stroke="#7A7A7A" stroke-opacity="0.2"/>
</g>
<defs>
<radialGradient id="paint0_radial_976_1402" cx="0" cy="0" r="1" gradientUnits="userSpaceOnUse" gradientTransform="translate(105.106 218.849) rotate(-74.8621) scale(283.163)">
<stop/>
<stop offset="1" stop-color="#DAFDFF"/>
</radialGradient>
</defs>
</svg>
