<svg width="16" height="15" viewBox="0 0 16 15" fill="none" xmlns="http://www.w3.org/2000/svg">
<mask id="mask0_937_2960" style="mask-type:alpha" maskUnits="userSpaceOnUse" x="-3" y="-4" width="21" height="21">
<rect x="-2.5" y="-3.3335" width="20" height="20" fill="#D9D9D9"/>
</mask>
<g mask="url(#mask0_937_2960)">
<path d="M0 13.3333V0L11.9167 5H11.6667C11.1806 5 10.7222 5.05556 10.2917 5.16667C9.86111 5.27778 9.44444 5.43056 9.04167 5.625L1.66667 2.5V5.41667L6.66667 6.66667L1.66667 7.91667V10.8333L6.16667 8.91667C6.05556 9.23611 5.97222 9.55208 5.91667 9.86458C5.86111 10.1771 5.83333 10.5 5.83333 10.8333V10.875L0 13.3333ZM11.6667 15C10.5139 15 9.53125 14.5938 8.71875 13.7812C7.90625 12.9688 7.5 11.9861 7.5 10.8333C7.5 9.68056 7.90625 8.69792 8.71875 7.88542C9.53125 7.07292 10.5139 6.66667 11.6667 6.66667C12.8194 6.66667 13.8021 7.07292 14.6146 7.88542C15.4271 8.69792 15.8333 9.68056 15.8333 10.8333C15.8333 11.9861 15.4271 12.9688 14.6146 13.7812C13.8021 14.5938 12.8194 15 11.6667 15ZM13.0417 12.7917L13.625 12.2083L12.0833 10.6667V8.33333H11.25V11L13.0417 12.7917Z" fill="#051522" fill-opacity="0.64"/>
</g>
</svg>
