<svg width="192" height="24" viewBox="0 0 192 24" fill="none" xmlns="http://www.w3.org/2000/svg">
<mask id="mask0_746_294" style="mask-type:alpha" maskUnits="userSpaceOnUse" x="0" y="0" width="24" height="24">
<rect width="24" height="24" fill="#D9D9D9"/>
</mask>
<g mask="url(#mask0_746_294)">
<path d="M8.85 17.825L12 15.925L15.15 17.85L14.325 14.25L17.1 11.85L13.45 11.525L12 8.125L10.55 11.5L6.9 11.825L9.675 14.25L8.85 17.825ZM5.825 22L7.45 14.975L2 10.25L9.2 9.625L12 3L14.8 9.625L22 10.25L16.55 14.975L18.175 22L12 18.275L5.825 22Z" fill="white" fill-opacity="0.75"/>
</g>
<mask id="mask1_746_294" style="mask-type:alpha" maskUnits="userSpaceOnUse" x="56" y="0" width="24" height="24">
<rect x="56" width="24" height="24" fill="#D9D9D9"/>
</mask>
<g mask="url(#mask1_746_294)">
<path d="M59 16V14H66V16H59ZM59 12V10H70V12H59ZM59 8V6H70V8H59ZM72 20V16H68V14H72V10H74V14H78V16H74V20H72Z" fill="white" fill-opacity="0.75"/>
</g>
<mask id="mask2_746_294" style="mask-type:alpha" maskUnits="userSpaceOnUse" x="112" y="0" width="24" height="24">
<rect x="112" width="24" height="24" fill="#D9D9D9"/>
</mask>
<g mask="url(#mask2_746_294)">
<path d="M130 22C129.167 22 128.458 21.7083 127.875 21.125C127.292 20.5417 127 19.8333 127 19C127 18.8833 127.008 18.7625 127.025 18.6375C127.042 18.5125 127.067 18.4 127.1 18.3L120.05 14.2C119.767 14.45 119.45 14.6458 119.1 14.7875C118.75 14.9292 118.383 15 118 15C117.167 15 116.458 14.7083 115.875 14.125C115.292 13.5417 115 12.8333 115 12C115 11.1667 115.292 10.4583 115.875 9.875C116.458 9.29167 117.167 9 118 9C118.383 9 118.75 9.07083 119.1 9.2125C119.45 9.35417 119.767 9.55 120.05 9.8L127.1 5.7C127.067 5.6 127.042 5.4875 127.025 5.3625C127.008 5.2375 127 5.11667 127 5C127 4.16667 127.292 3.45833 127.875 2.875C128.458 2.29167 129.167 2 130 2C130.833 2 131.542 2.29167 132.125 2.875C132.708 3.45833 133 4.16667 133 5C133 5.83333 132.708 6.54167 132.125 7.125C131.542 7.70833 130.833 8 130 8C129.617 8 129.25 7.92917 128.9 7.7875C128.55 7.64583 128.233 7.45 127.95 7.2L120.9 11.3C120.933 11.4 120.958 11.5125 120.975 11.6375C120.992 11.7625 121 11.8833 121 12C121 12.1167 120.992 12.2375 120.975 12.3625C120.958 12.4875 120.933 12.6 120.9 12.7L127.95 16.8C128.233 16.55 128.55 16.3542 128.9 16.2125C129.25 16.0708 129.617 16 130 16C130.833 16 131.542 16.2917 132.125 16.875C132.708 17.4583 133 18.1667 133 19C133 19.8333 132.708 20.5417 132.125 21.125C131.542 21.7083 130.833 22 130 22ZM130 6C130.283 6 130.521 5.90417 130.713 5.7125C130.904 5.52083 131 5.28333 131 5C131 4.71667 130.904 4.47917 130.713 4.2875C130.521 4.09583 130.283 4 130 4C129.717 4 129.479 4.09583 129.288 4.2875C129.096 4.47917 129 4.71667 129 5C129 5.28333 129.096 5.52083 129.288 5.7125C129.479 5.90417 129.717 6 130 6ZM118 13C118.283 13 118.521 12.9042 118.713 12.7125C118.904 12.5208 119 12.2833 119 12C119 11.7167 118.904 11.4792 118.713 11.2875C118.521 11.0958 118.283 11 118 11C117.717 11 117.479 11.0958 117.288 11.2875C117.096 11.4792 117 11.7167 117 12C117 12.2833 117.096 12.5208 117.288 12.7125C117.479 12.9042 117.717 13 118 13ZM130 20C130.283 20 130.521 19.9042 130.713 19.7125C130.904 19.5208 131 19.2833 131 19C131 18.7167 130.904 18.4792 130.713 18.2875C130.521 18.0958 130.283 18 130 18C129.717 18 129.479 18.0958 129.288 18.2875C129.096 18.4792 129 18.7167 129 19C129 19.2833 129.096 19.5208 129.288 19.7125C129.479 19.9042 129.717 20 130 20Z" fill="white" fill-opacity="0.75"/>
</g>
<mask id="mask3_746_294" style="mask-type:alpha" maskUnits="userSpaceOnUse" x="168" y="0" width="24" height="24">
<rect x="168" width="24" height="24" fill="#D9D9D9"/>
</mask>
<g mask="url(#mask3_746_294)">
<path d="M180 16.5C181.25 16.5 182.312 16.0625 183.188 15.1875C184.062 14.3125 184.5 13.25 184.5 12C184.5 10.75 184.062 9.6875 183.188 8.8125C182.312 7.9375 181.25 7.5 180 7.5C178.75 7.5 177.688 7.9375 176.812 8.8125C175.938 9.6875 175.5 10.75 175.5 12C175.5 13.25 175.938 14.3125 176.812 15.1875C177.688 16.0625 178.75 16.5 180 16.5ZM180 13C179.717 13 179.479 12.9042 179.288 12.7125C179.096 12.5208 179 12.2833 179 12C179 11.7167 179.096 11.4792 179.288 11.2875C179.479 11.0958 179.717 11 180 11C180.283 11 180.521 11.0958 180.713 11.2875C180.904 11.4792 181 11.7167 181 12C181 12.2833 180.904 12.5208 180.713 12.7125C180.521 12.9042 180.283 13 180 13ZM180 22C178.617 22 177.317 21.7375 176.1 21.2125C174.883 20.6875 173.825 19.975 172.925 19.075C172.025 18.175 171.312 17.1167 170.788 15.9C170.262 14.6833 170 13.3833 170 12C170 10.6167 170.262 9.31667 170.788 8.1C171.312 6.88333 172.025 5.825 172.925 4.925C173.825 4.025 174.883 3.3125 176.1 2.7875C177.317 2.2625 178.617 2 180 2C181.383 2 182.683 2.2625 183.9 2.7875C185.117 3.3125 186.175 4.025 187.075 4.925C187.975 5.825 188.688 6.88333 189.212 8.1C189.737 9.31667 190 10.6167 190 12C190 13.3833 189.737 14.6833 189.212 15.9C188.688 17.1167 187.975 18.175 187.075 19.075C186.175 19.975 185.117 20.6875 183.9 21.2125C182.683 21.7375 181.383 22 180 22ZM180 20C182.233 20 184.125 19.225 185.675 17.675C187.225 16.125 188 14.2333 188 12C188 9.76667 187.225 7.875 185.675 6.325C184.125 4.775 182.233 4 180 4C177.767 4 175.875 4.775 174.325 6.325C172.775 7.875 172 9.76667 172 12C172 14.2333 172.775 16.125 174.325 17.675C175.875 19.225 177.767 20 180 20Z" fill="white" fill-opacity="0.75"/>
</g>
</svg>
