<svg width="387" height="387" viewBox="0 0 387 387" fill="none" xmlns="http://www.w3.org/2000/svg">
<path d="M60.9655 59.7688C73.0466 31.6208 101.383 13.9776 131.973 15.5567L148.276 16.3982C158.828 16.9429 169.373 15.1957 179.185 11.2768L194.346 5.22182C222.792 -6.13922 255.304 1.42177 275.819 24.1689L286.752 36.2922C293.828 44.1387 302.52 50.3596 312.229 54.5269L327.231 60.9656C355.379 73.0466 373.022 101.383 371.443 131.973L370.601 148.276C370.057 158.828 371.804 169.373 375.723 179.186L381.778 194.346C393.139 222.792 385.578 255.305 362.831 275.819L350.707 286.752C342.861 293.828 336.64 302.52 332.473 312.229L326.034 327.231C313.953 355.379 285.617 373.022 255.027 371.443L238.723 370.601C228.171 370.057 217.627 371.804 207.814 375.723L192.654 381.778C164.207 393.139 131.695 385.578 111.181 362.831L100.248 350.708C93.1717 342.861 84.48 336.64 74.7704 332.473L59.7687 326.034C31.6208 313.953 13.9776 285.617 15.5567 255.027L16.3982 238.723C16.9429 228.171 15.1957 217.627 11.2767 207.814L5.22179 192.654C-6.13925 164.207 1.42175 131.695 24.1689 111.181L36.2921 100.248C44.1387 93.1718 50.3596 84.48 54.5269 74.7704L60.9655 59.7688Z" fill="url(#paint0_radial_531_438)"/>
<path d="M61.4261 59.9664C73.4244 32.0113 101.566 14.4889 131.947 16.0572L148.25 16.8987C158.875 17.4471 169.492 15.688 179.371 11.7422L194.532 5.68723C222.783 -5.596 255.073 1.9132 275.446 24.5045L286.379 36.6278C293.504 44.5281 302.256 50.7916 312.032 54.9874L327.033 61.4261C354.988 73.4244 372.511 101.566 370.943 131.947L370.101 148.25C369.553 158.875 371.312 169.492 375.258 179.371L381.312 194.532C392.596 222.783 385.086 255.073 362.495 275.446L350.372 286.38C342.472 293.504 336.208 302.256 332.012 312.032L325.574 327.033C313.575 354.988 285.433 372.511 255.053 370.943L238.749 370.101C228.125 369.553 217.508 371.312 207.628 375.258L192.468 381.312C164.216 392.596 131.927 385.086 111.553 362.495L100.62 350.372C93.4954 342.472 84.7441 336.208 74.9681 332.012L59.9664 325.574C32.0112 313.575 14.4889 285.433 16.0571 255.053L16.8987 238.749C17.4471 228.125 15.6879 217.508 11.7421 207.628L5.68718 192.468C-5.59603 164.216 1.91317 131.927 24.5045 111.553L36.6278 100.62C44.5281 93.4955 50.7915 84.7441 54.9874 74.9681L61.4261 59.9664Z" stroke="#7A7A7A" stroke-opacity="0.2"/>
<defs>
<radialGradient id="paint0_radial_531_438" cx="0" cy="0" r="1" gradientUnits="userSpaceOnUse" gradientTransform="translate(103.794 135.603) rotate(16.7849) scale(365.028)">
<stop stop-color="#92D8FF"/>
<stop offset="1" stop-color="#DAFDFF"/>
</radialGradient>
</defs>
</svg>
