<svg width="377" height="377" viewBox="0 0 377 377" fill="none" xmlns="http://www.w3.org/2000/svg">
<path d="M40.3922 85.3871C47.4793 55.5934 72.375 33.3679 102.779 29.6921L115.877 28.1085C126.365 26.8405 136.453 23.3161 145.449 17.7776L156.684 10.8604C182.762 -5.19558 216.082 -3.30745 240.18 15.5919L250.562 23.7341C258.874 30.2533 268.5 34.8949 278.777 37.3395L291.613 40.3927C321.406 47.4797 343.632 72.3755 347.308 102.779L348.891 115.877C350.159 126.365 353.684 136.454 359.222 145.449L366.139 156.684C382.195 182.763 380.307 216.083 361.408 240.181L353.266 250.562C346.747 258.875 342.105 268.501 339.66 278.778L336.607 291.613C329.52 321.407 304.624 343.633 274.221 347.308L261.122 348.892C250.635 350.16 240.546 353.684 231.551 359.223L220.316 366.14C194.237 382.196 160.917 380.308 136.819 361.408L126.438 353.266C118.125 346.747 108.499 342.106 98.2221 339.661L85.3866 336.608C55.5929 329.521 33.3674 304.625 29.6916 274.221L28.108 261.123C26.84 250.635 23.3156 240.547 17.7771 231.551L10.86 220.316C-5.19608 194.237 -3.30794 160.918 15.5914 136.82L23.7336 126.438C30.2528 118.126 34.8944 108.5 37.3391 98.2226L40.3922 85.3871Z" fill="url(#paint0_radial_531_496)"/>
<path d="M40.8797 85.5031C47.9182 55.9134 72.6434 33.8401 102.839 30.1895L115.937 28.6059C126.497 27.3292 136.654 23.7807 145.712 18.2043L156.947 11.2871C182.847 -4.65894 215.938 -2.78374 239.871 15.9862L250.253 24.1283C258.622 30.6922 268.314 35.3656 278.661 37.827L291.497 40.8802C321.086 47.9186 343.16 72.6439 346.81 102.839L348.394 115.938C349.671 126.497 353.219 136.655 358.796 145.712L365.713 156.947C381.659 182.847 379.784 215.939 361.014 239.871L352.872 250.253C346.308 258.622 341.634 268.314 339.173 278.662L336.12 291.497C329.081 321.087 304.356 343.16 274.161 346.811L261.062 348.395C250.503 349.671 240.345 353.22 231.288 358.796L220.053 365.713C194.153 381.659 161.061 379.784 137.129 361.014L126.747 352.872C118.377 346.308 108.686 341.635 98.3381 339.173L85.5026 336.12C55.9129 329.082 33.8396 304.356 30.189 274.161L28.6054 261.063C27.3287 250.503 23.7802 240.346 18.2038 231.288L11.2866 220.053C-4.65945 194.153 -2.78424 161.062 15.9857 137.129L24.1278 126.747C30.6917 118.378 35.3651 108.686 37.8265 98.3386L40.8797 85.5031Z" stroke="#7A7A7A" stroke-opacity="0.2"/>
<defs>
<radialGradient id="paint0_radial_531_496" cx="0" cy="0" r="1" gradientUnits="userSpaceOnUse" gradientTransform="translate(93.922 148.374) rotate(6.93633) scale(351.254)">
<stop stop-color="#92D8FF"/>
<stop offset="1" stop-color="#DAFDFF"/>
</radialGradient>
</defs>
</svg>
