<svg width="375" height="375" viewBox="0 0 375 375" fill="none" xmlns="http://www.w3.org/2000/svg">
<path d="M7.7291 203.564C-5.97158 176.17 -1.15838 143.142 19.7905 120.798L28.8155 111.172C36.0418 103.465 41.5129 94.2834 44.8528 84.2599L49.024 71.7414C58.7062 42.6836 85.4642 22.7325 116.077 21.746L129.265 21.3211C139.825 20.9808 150.186 18.3574 159.635 13.6314L171.436 7.72898C198.83 -5.97169 231.858 -1.15848 254.202 19.7904L263.828 28.8154C271.535 36.0417 280.717 41.5128 290.74 44.8527L303.258 49.0239C332.316 58.7061 352.267 85.4641 353.254 116.077L353.679 129.265C354.019 139.825 356.642 150.185 361.369 159.635L367.271 171.436C380.972 198.83 376.158 231.858 355.21 254.202L346.184 263.828C338.958 271.535 333.487 280.716 330.147 290.74L325.976 303.258C316.294 332.316 289.536 352.267 258.923 353.254L245.735 353.679C235.175 354.019 224.814 356.642 215.365 361.368L203.564 367.271C176.17 380.971 143.142 376.158 120.798 355.209L111.172 346.184C103.465 338.958 94.2835 333.487 84.2601 330.147L71.7415 325.976C42.6836 316.294 22.7326 289.536 21.7461 258.923L21.3212 245.735C20.9809 235.175 18.3575 224.814 13.6315 215.365L7.7291 203.564Z" fill="url(#paint0_radial_931_3600)" fill-opacity="0.45"/>
<path d="M8.17727 203.339C-5.42956 176.134 -0.649333 143.332 20.156 121.141L29.1811 111.515C36.4568 103.754 41.9655 94.5105 45.3282 84.4184L49.4994 71.8998C59.1153 43.041 85.69 23.2266 116.093 22.2469L129.281 21.8219C139.913 21.4793 150.345 18.838 159.859 14.0796L171.66 8.17714C198.866 -5.42969 231.668 -0.649439 253.859 20.1559L263.485 29.181C271.245 36.4567 280.489 41.9654 290.582 45.3281L303.1 49.4993C331.959 59.1152 351.773 85.6899 352.753 116.093L353.178 129.281C353.521 139.913 356.162 150.345 360.92 159.859L366.823 171.66C380.43 198.866 375.649 231.668 354.844 253.859L345.819 263.485C338.543 271.245 333.035 280.489 329.672 290.581L325.501 303.1C315.885 331.959 289.31 351.773 258.907 352.753L245.719 353.178C235.087 353.521 224.655 356.162 215.141 360.92L203.34 366.823C176.134 380.429 143.332 375.649 121.141 354.844L111.515 345.819C103.755 338.543 94.5105 333.034 84.4185 329.672L71.8999 325.5C43.0411 315.885 23.2267 289.31 22.247 258.907L21.822 245.719C21.4794 235.087 18.8381 224.655 14.0797 215.141L8.17727 203.339Z" stroke="#7A7A7A" stroke-opacity="0.2"/>
<defs>
<radialGradient id="paint0_radial_931_3600" cx="0" cy="0" r="1" gradientUnits="userSpaceOnUse" gradientTransform="translate(89.22 217.476) rotate(-33.0157) scale(351.294)">
<stop stop-opacity="0"/>
<stop offset="1" stop-color="#ECDAFF"/>
</radialGradient>
</defs>
</svg>
