<svg width="434" height="434" viewBox="0 0 434 434" fill="none" xmlns="http://www.w3.org/2000/svg">
<path d="M33.7327 120.662C35.9037 90.9839 56.332 65.7992 84.924 57.5518L108.608 50.7201C119.026 47.715 128.67 42.4889 136.877 35.4014L155.532 19.2895C178.053 -0.161157 210.306 -3.5245 236.355 10.8614L257.933 22.7778C267.425 28.0197 277.94 31.1436 288.754 31.9347L313.338 33.733C343.016 35.904 368.201 56.3323 376.449 84.9243L383.28 108.608C386.285 119.027 391.511 128.671 398.599 136.877L414.711 155.532C434.161 178.053 437.525 210.306 423.139 236.356L411.222 257.933C405.981 267.425 402.857 277.94 402.066 288.754L400.267 313.338C398.096 343.017 377.668 368.201 349.076 376.449L325.392 383.28C314.974 386.286 305.33 391.512 297.123 398.599L278.468 414.711C255.947 434.162 223.694 437.525 197.645 423.139L176.067 411.223C166.575 405.981 156.06 402.857 145.246 402.066L120.662 400.268C90.9836 398.097 65.7989 377.668 57.5515 349.076L50.7198 325.392C47.7146 314.974 42.4886 305.33 35.4012 297.124L19.2893 278.469C-0.161432 255.948 -3.52479 223.694 10.8611 197.645L22.7775 176.067C28.0194 166.575 31.1434 156.061 31.9344 145.246L33.7327 120.662Z" stroke="#7A7A7A" stroke-opacity="0.2" stroke-width="4"/>
</svg>
