<svg width="22" height="28" viewBox="0 0 22 28" fill="none" xmlns="http://www.w3.org/2000/svg">
<path d="M2.66667 9.33333H14.6667V6.66667C14.6667 5.55556 14.2778 4.61111 13.5 3.83333C12.7222 3.05556 11.7778 2.66667 10.6667 2.66667C9.55556 2.66667 8.61111 3.05556 7.83333 3.83333C7.05556 4.61111 6.66667 5.55556 6.66667 6.66667H4C4 4.82222 4.65 3.25 5.95 1.95C7.25 0.65 8.82222 0 10.6667 0C12.5111 0 14.0833 0.65 15.3833 1.95C16.6833 3.25 17.3333 4.82222 17.3333 6.66667V9.33333H18.6667C19.4 9.33333 20.0278 9.59445 20.55 10.1167C21.0722 10.6389 21.3333 11.2667 21.3333 12V25.3333C21.3333 26.0667 21.0722 26.6944 20.55 27.2167C20.0278 27.7389 19.4 28 18.6667 28H2.66667C1.93333 28 1.30556 27.7389 0.783333 27.2167C0.261111 26.6944 0 26.0667 0 25.3333V12C0 11.2667 0.261111 10.6389 0.783333 10.1167C1.30556 9.59445 1.93333 9.33333 2.66667 9.33333ZM2.66667 25.3333H18.6667V12H2.66667V25.3333ZM10.6667 21.3333C11.4 21.3333 12.0278 21.0722 12.55 20.55C13.0722 20.0278 13.3333 19.4 13.3333 18.6667C13.3333 17.9333 13.0722 17.3056 12.55 16.7833C12.0278 16.2611 11.4 16 10.6667 16C9.93333 16 9.30556 16.2611 8.78333 16.7833C8.26111 17.3056 8 17.9333 8 18.6667C8 19.4 8.26111 20.0278 8.78333 20.55C9.30556 21.0722 9.93333 21.3333 10.6667 21.3333Z" fill="white"/>
</svg>
