<svg width="19" height="19" viewBox="0 0 19 19" fill="none" xmlns="http://www.w3.org/2000/svg">
<mask id="mask0_931_3681" style="mask-type:alpha" maskUnits="userSpaceOnUse" x="-4" y="-3" width="26" height="26">
<rect x="-3.11884" y="-2.85894" width="24.9507" height="24.9507" fill="#D9D9D9"/>
</mask>
<g mask="url(#mask0_931_3681)">
<path d="M2.07923 16.8937H3.53468L12.5013 7.92705L11.0459 6.47159L2.07923 15.4383V16.8937ZM16.9457 6.41961L12.5273 2.05324L13.9828 0.597777C14.3813 0.199259 14.8708 0 15.4512 0C16.0317 0 16.5212 0.199259 16.9197 0.597777L18.3752 2.05324C18.7737 2.45175 18.9816 2.93257 18.9989 3.4957C19.0163 4.05882 18.8257 4.53964 18.4271 4.93816L16.9457 6.41961ZM15.4383 7.95304L4.41836 18.9729H0V14.5546L11.0199 3.53468L15.4383 7.95304Z" fill="white"/>
</g>
</svg>
