<svg width="20" height="18" viewBox="0 0 20 18" fill="none" xmlns="http://www.w3.org/2000/svg">
<path fill-rule="evenodd" clip-rule="evenodd" d="M6.4375 0.5H13.5625C14.8742 0.5 15.9375 1.5746 15.9375 2.90018V14.9011C15.9375 16.2267 14.8742 17.3013 13.5625 17.3013H6.4375C5.12582 17.3013 4.0625 16.2267 4.0625 14.9011V2.90018C4.0625 1.5746 5.12582 0.5 6.4375 0.5ZM15.9375 3.50022H17.125C18.4367 3.50022 19.5 4.57482 19.5 5.9004V11.9008C19.5 13.2264 18.4367 14.301 17.125 14.301H15.9375V3.50022Z" stroke="white" stroke-linecap="round" stroke-linejoin="round"/>
<path fill-rule="evenodd" clip-rule="evenodd" d="M4.0625 3.5H2.875C1.56332 3.5 0.5 4.5746 0.5 5.90018V11.9006C0.5 13.2262 1.56332 14.3008 2.875 14.3008H4.0625V3.5Z" stroke="white" stroke-linecap="round" stroke-linejoin="round"/>
</svg>
