<svg width="436" height="436" viewBox="0 0 436 436" fill="none" xmlns="http://www.w3.org/2000/svg">
<path d="M176.182 13.1303C201.312 -4.3766 234.688 -4.37662 259.818 13.1302L280.064 27.2346C288.732 33.2736 298.606 37.3634 309.006 39.2228L333.295 43.5656C363.444 48.956 387.044 72.556 392.434 102.705L396.777 126.994C398.636 137.394 402.726 147.268 408.765 155.936L422.87 176.182C440.376 201.312 440.376 234.688 422.87 259.818L408.765 280.064C402.726 288.732 398.636 298.606 396.777 309.006L392.434 333.295C387.044 363.444 363.444 387.044 333.295 392.434L309.006 396.777C298.606 398.637 288.732 402.726 280.064 408.765L259.818 422.87C234.688 440.377 201.312 440.377 176.182 422.87L155.936 408.765C147.268 402.726 137.394 398.637 126.994 396.777L102.705 392.434C72.5559 387.044 48.9559 363.444 43.5655 333.295L39.2227 309.006C37.3633 298.606 33.2735 288.732 27.2345 280.064L13.1301 259.818C-4.37673 234.688 -4.37675 201.312 13.1301 176.182L27.2345 155.936C33.2735 147.268 37.3633 137.394 39.2227 126.994L43.5655 102.705C48.9559 72.556 72.5558 48.956 102.705 43.5656L126.994 39.2228C137.394 37.3634 147.268 33.2736 155.936 27.2347L176.182 13.1303Z" fill="url(#paint0_radial_1019_359)"/>
<path d="M176.469 13.5414C201.426 -3.84555 234.573 -3.84557 259.531 13.5414L279.777 27.6458C288.505 33.7261 298.446 37.8439 308.917 39.7161L333.207 44.0589C363.149 49.4123 386.588 72.8507 391.941 102.793L396.284 127.082C398.156 137.553 402.274 147.495 408.354 156.223L422.458 176.469C439.845 201.427 439.845 234.573 422.458 259.531L408.354 279.777C402.274 288.505 398.156 298.447 396.284 308.918L391.941 333.207C386.588 363.149 363.149 386.588 333.207 391.941L308.917 396.284C298.446 398.156 288.505 402.274 279.777 408.354L259.531 422.459C234.573 439.846 201.426 439.846 176.469 422.459L156.223 408.354C147.495 402.274 137.553 398.156 127.082 396.284L102.793 391.941C72.8506 386.588 49.4122 363.149 44.0587 333.207L39.7159 308.917C37.8438 298.447 33.726 288.505 27.6457 279.777L13.5413 259.531C-3.84567 234.573 -3.84569 201.427 13.5413 176.469L27.6457 156.223C33.726 147.495 37.8438 137.553 39.7159 127.082L44.0587 102.793C49.4122 72.8507 72.8505 49.4123 102.793 44.0589L127.082 39.7161C137.553 37.8439 147.495 33.7261 156.223 27.6458L176.469 13.5414Z" stroke="#7A7A7A" stroke-opacity="0.2"/>
<defs>
<radialGradient id="paint0_radial_1019_359" cx="0" cy="0" r="1" gradientUnits="userSpaceOnUse" gradientTransform="translate(167.892 111.772) rotate(48.693) scale(401.563)">
<stop stop-color="#92D8FF"/>
<stop offset="1" stop-color="#DAFDFF"/>
</radialGradient>
</defs>
</svg>
