<svg width="27" height="51" viewBox="0 0 27 51" fill="none" xmlns="http://www.w3.org/2000/svg">
<path d="M2.02995 14.8711V36.5499C2.02995 38.9178 2.69599 41.238 3.95198 43.2454L4.25872 43.7356C5.5189 45.7497 7.40254 47.2969 9.623 48.1418C12.1203 49.0921 14.8797 49.0921 17.377 48.1418C19.5975 47.2969 21.4811 45.7497 22.7413 43.7356L23.048 43.2454C24.304 41.238 24.9701 38.9178 24.9701 36.5499V14.8711C24.9701 12.5232 24.3518 10.2168 23.1776 8.1837L22.6861 7.33278C21.4656 5.21949 19.5537 3.59166 17.2728 2.72371C14.8426 1.79895 12.1574 1.79895 9.72718 2.72371C7.4463 3.59166 5.53442 5.21949 4.31386 7.33278L3.8224 8.1837C2.64816 10.2168 2.02995 12.5232 2.02995 14.8711Z" stroke="white" stroke-width="4" stroke-linecap="round"/>
</svg>
