<svg width="22" height="20" viewBox="0 0 22 20" fill="none" xmlns="http://www.w3.org/2000/svg">
<mask id="mask0_367_1657" style="mask-type:alpha" maskUnits="userSpaceOnUse" x="-2" y="-3" width="26" height="26">
<rect x="-1.37366" y="-2.39197" width="24.4276" height="24.4276" fill="#D9D9D9"/>
</mask>
<g mask="url(#mask0_367_1657)">
<path d="M10.8397 20.0001C9.56748 20.0001 8.37579 19.7584 7.26467 19.2749C6.15355 18.7914 5.18663 18.1383 4.36389 17.3156C3.54115 16.4929 2.88806 15.5259 2.40459 14.4148C1.92113 13.3037 1.6794 12.112 1.6794 10.8397C1.6794 9.56748 1.92113 8.37578 2.40459 7.26467C2.88806 6.15355 3.54115 5.18662 4.36389 4.36389C5.18663 3.54115 6.15355 2.88805 7.26467 2.40459C8.37579 1.92113 9.56748 1.6794 10.8397 1.6794C12.112 1.6794 13.3037 1.92113 14.4148 2.40459C15.5259 2.88805 16.4929 3.54115 17.3156 4.36389C18.1383 5.18662 18.7914 6.15355 19.2749 7.26467C19.7584 8.37578 20.0001 9.56748 20.0001 10.8397C20.0001 12.112 19.7584 13.3037 19.2749 14.4148C18.7914 15.5259 18.1383 16.4929 17.3156 17.3156C16.4929 18.1383 15.5259 18.7914 14.4148 19.2749C13.3037 19.7584 12.112 20.0001 10.8397 20.0001ZM13.6896 15.1146L15.1146 13.6896L11.8576 10.4326V5.75066H9.82193V11.2469L13.6896 15.1146ZM4.32572 0L5.75067 1.42494L1.42494 5.75066L0 4.32572L4.32572 0ZM17.3538 0L21.6795 4.32572L20.2546 5.75066L15.9288 1.42494L17.3538 0ZM10.8397 17.9645C12.8245 17.9645 14.5081 17.2732 15.8907 15.8907C17.2732 14.5081 17.9645 12.8245 17.9645 10.8397C17.9645 8.85501 17.2732 7.17137 15.8907 5.78883C14.5081 4.4063 12.8245 3.71503 10.8397 3.71503C8.85501 3.71503 7.17137 4.4063 5.78883 5.78883C4.4063 7.17137 3.71503 8.85501 3.71503 10.8397C3.71503 12.8245 4.4063 14.5081 5.78883 15.8907C7.17137 17.2732 8.85501 17.9645 10.8397 17.9645Z" fill="#051522" fill-opacity="0.45"/>
</g>
</svg>
