<svg width="38" height="28" viewBox="0 0 38 28" fill="none" xmlns="http://www.w3.org/2000/svg">
<path d="M10.164 2.64479C12.017 -0.229155 16.2134 -0.855889 19.6041 1.23488L19.9088 1.42274C21.4069 2.34645 23.1616 2.70586 24.7689 2.41821L27.898 1.85823C30.6121 1.37251 33.3686 3.73125 33.1688 6.35087C33.0502 7.90558 34.0175 9.505 35.5788 10.3213C38.4827 11.8396 38.8602 15.5638 36.2419 16.8626L35.0066 17.4754C33.6323 18.1571 32.8338 19.5107 32.8957 21.054L32.9044 21.2711C33.0203 24.1644 30.4104 26.1616 27.3135 25.5495L24.7323 25.0392C22.8847 24.674 21.051 24.9479 19.583 25.8083L17.5322 27.0103C15.0716 28.4525 11.5099 27.377 9.90261 24.7064L9.782 24.5061C8.92466 23.0816 7.39539 22.0756 5.73897 21.8466L4.25014 21.6407C1.09432 21.2043 -0.766532 17.7015 0.981701 15.4884C1.9216 14.2986 1.85644 12.5644 0.827831 11.1811C-0.905335 8.85013 0.210925 5.91299 2.97261 5.58088L6.15654 5.198C7.79205 5.00132 9.17879 4.17274 9.99748 2.90302L10.164 2.64479Z" fill="white" fill-opacity="0.15"/>
</svg>
