<svg width="307" height="307" viewBox="0 0 307 307" fill="none" xmlns="http://www.w3.org/2000/svg">
<path d="M203.963 21.3324C230.183 10.3428 259.014 30.0458 258.302 58.4665C257.894 74.7341 267.579 89.5621 282.639 95.7263C308.95 106.496 315.405 140.815 294.805 160.407C283.014 171.622 279.377 188.955 285.668 203.963C296.657 230.183 276.954 259.015 248.533 258.302C232.266 257.894 217.438 267.579 211.274 282.64C200.504 308.95 166.185 315.405 146.593 294.805C135.378 283.014 118.045 279.377 103.037 285.668C76.817 296.657 47.9855 276.954 48.698 248.534C49.1059 232.266 39.4205 217.438 24.3604 211.274C-1.95049 200.504 -8.40538 166.185 12.1949 146.593C23.9863 135.378 27.6227 118.045 21.3324 103.037C10.3428 76.817 30.0458 47.9855 58.4664 48.6981C74.7341 49.1059 89.562 39.4205 95.7263 24.3604C106.496 -1.95047 140.815 -8.40534 160.407 12.195C171.622 23.9864 188.955 27.6227 203.963 21.3324Z" fill="url(#paint0_radial_531_437)"/>
<path d="M204.157 21.7942C230.042 10.945 258.505 30.3963 257.801 58.4539C257.388 74.9294 267.197 89.9467 282.45 96.1897C308.425 106.821 314.797 140.702 294.46 160.044C282.518 171.402 278.835 188.957 285.206 204.157C296.055 230.042 276.604 258.505 248.546 257.801C232.071 257.388 217.053 267.197 210.81 282.45C200.178 308.425 166.298 314.797 146.955 294.46C135.598 282.518 118.043 278.835 102.843 285.206C76.9584 296.055 48.4951 276.604 49.1986 248.546C49.6117 232.071 39.8026 217.053 24.5501 210.81C-1.42472 200.179 -7.79715 166.298 12.54 146.956C24.482 135.598 28.1648 118.043 21.7942 102.843C10.945 76.9584 30.3963 48.4951 58.4539 49.1986C74.9294 49.6117 89.9467 39.8026 96.1897 24.5501C106.821 -1.42469 140.702 -7.79712 160.044 12.5401C171.402 24.4821 188.957 28.1648 204.157 21.7942Z" stroke="#7A7A7A" stroke-opacity="0.2"/>
<defs>
<radialGradient id="paint0_radial_531_437" cx="0" cy="0" r="1" gradientUnits="userSpaceOnUse" gradientTransform="translate(149.559 282.275) rotate(-111.645) scale(282.808)">
<stop stop-color="#00A3FF"/>
<stop offset="1" stop-color="#DAFDFF"/>
</radialGradient>
</defs>
</svg>
