<svg width="85" height="83" viewBox="0 0 85 83" fill="none" xmlns="http://www.w3.org/2000/svg">
<path d="M57.6078 76.3173C54.8178 83.6612 45.1812 85.3418 40.07 79.3758C37.0711 75.8754 32.117 74.7806 27.923 76.6926L27.3252 76.9651C20.3415 80.149 12.5314 74.5741 13.2732 66.9348C13.7165 62.3704 10.9874 58.0928 6.66138 56.5712C-0.681768 53.9884 -2.36083 44.3605 3.67458 39.4445C7.2302 36.5484 8.35022 31.5996 6.38812 27.4547C3.10419 20.5174 8.5662 12.6279 16.2154 13.2599L16.8701 13.314C21.4638 13.6935 25.7548 10.9864 27.3918 6.67753C30.1818 -0.666391 39.8185 -2.34696 44.9297 3.61903C47.9285 7.11945 52.8826 8.21425 57.0767 6.30218L57.6744 6.02967C64.6582 2.8458 72.4683 8.42069 71.7264 16.06C71.2832 20.6244 74.0122 24.902 78.3383 26.4236C85.6814 29.0064 87.3605 38.6343 81.3251 43.5503C77.7694 46.4464 76.6494 51.3953 78.6115 55.5402C81.8955 62.4774 76.4334 70.3669 68.7842 69.7349L68.1295 69.6808C63.5358 69.3013 59.2448 72.0084 57.6078 76.3173Z" fill="white"/>
</svg>
