<svg width="22" height="20" viewBox="0 0 22 20" fill="none" xmlns="http://www.w3.org/2000/svg">
<g opacity="0.8">
<path d="M0.767442 17.1395V6.90698C0.767442 5.77672 1.6837 4.86047 2.81395 4.86047H3.32558C3.96973 4.86047 4.5763 4.55718 4.96279 4.04186L7.23442 1.01302C7.35036 0.85843 7.53234 0.767442 7.72558 0.767442H14.2744C14.4677 0.767442 14.6496 0.85843 14.7656 1.01302L17.0372 4.04186C17.4237 4.55718 18.0303 4.86047 18.6744 4.86047H19.186C20.3163 4.86047 21.2326 5.77672 21.2326 6.90698V17.1395C21.2326 18.2698 20.3163 19.186 19.186 19.186H2.81395C1.6837 19.186 0.767442 18.2698 0.767442 17.1395Z" stroke="white" stroke-width="1.5" stroke-linecap="round" stroke-linejoin="round"/>
<path d="M11 15.093C13.2605 15.093 15.093 13.2605 15.093 11C15.093 8.73953 13.2605 6.90698 11 6.90698C8.73948 6.90698 6.90698 8.73953 6.90698 11C6.90698 13.2605 8.73948 15.093 11 15.093Z" stroke="white" stroke-width="1.5" stroke-linecap="round" stroke-linejoin="round"/>
</g>
</svg>
