<svg width="22" height="17" viewBox="0 0 22 17" fill="none" xmlns="http://www.w3.org/2000/svg">
<mask id="mask0_367_1594" style="mask-type:alpha" maskUnits="userSpaceOnUse" x="-4" y="-7" width="30" height="31">
<rect x="-3.64254" y="-6.07189" width="29.143" height="29.143" fill="#D9D9D9"/>
</mask>
<g mask="url(#mask0_367_1594)">
<path d="M7.28574 17.0001C6.88097 17.0001 6.50151 16.909 6.14734 16.7268C5.79317 16.5447 5.50478 16.2917 5.28216 15.9679L0 8.50003L5.28216 1.03215C5.50478 0.708336 5.79317 0.455359 6.14734 0.273215C6.50151 0.0910717 6.88097 0 7.28574 0H19.4286C20.0965 0 20.6682 0.237798 21.1438 0.713395C21.6194 1.18899 21.8572 1.76072 21.8572 2.42858V14.5715C21.8572 15.2393 21.6194 15.8111 21.1438 16.2867C20.6682 16.7623 20.0965 17.0001 19.4286 17.0001H7.28574ZM7.28574 14.5715H19.4286V2.42858H7.28574L2.97501 8.50003L7.28574 14.5715ZM10.2 13.3572L13.3572 10.2L16.5143 13.3572L18.2143 11.6572L15.0572 8.50003L18.2143 5.34287L16.5143 3.64287L13.3572 6.80002L10.2 3.64287L8.50003 5.34287L11.6572 8.50003L8.50003 11.6572L10.2 13.3572Z" fill="#051522"/>
</g>
</svg>
