<svg width="410" height="410" viewBox="0 0 410 410" fill="none" xmlns="http://www.w3.org/2000/svg">
<path d="M135.304 19.9046C157.586 -1.08944 190.587 -5.9816 218.001 7.64536L236.063 16.6236C245.52 21.3242 255.882 23.9208 266.438 24.235L286.599 24.835C317.2 25.7458 343.995 45.6218 353.744 74.6424L360.167 93.7628C363.53 103.773 369.021 112.937 376.263 120.623L390.095 135.304C411.089 157.586 415.982 190.587 402.355 218.001L393.376 236.063C388.676 245.52 386.079 255.882 385.765 266.438L385.165 286.6C384.254 317.2 364.378 343.995 335.358 353.744L316.237 360.167C306.227 363.53 297.063 369.022 289.377 376.263L274.696 390.095C252.414 411.09 219.413 415.982 191.999 402.355L173.937 393.376C164.48 388.676 154.118 386.079 143.562 385.765L123.401 385.165C92.7997 384.254 66.0051 364.378 56.256 335.358L49.8327 316.237C46.4697 306.227 40.9785 297.063 33.7366 289.377L19.9046 274.696C-1.08951 252.414 -5.98167 219.413 7.64529 191.999L16.6235 173.937C21.3241 164.48 23.9208 154.118 24.2349 143.562L24.835 123.401C25.7457 92.7997 45.6217 66.0052 74.6423 56.256L93.7628 49.8327C103.773 46.4698 112.937 40.9786 120.623 33.7367L135.304 19.9046Z" fill="url(#paint0_radial_1019_318)"/>
<path d="M135.647 20.2692C157.777 -0.581102 190.552 -5.43975 217.778 8.09388L235.84 17.0721C245.362 21.8049 255.795 24.4193 266.423 24.7357L286.585 25.3357C316.976 26.2402 343.587 45.9801 353.269 74.8019L359.692 93.9223C363.078 104.001 368.607 113.228 375.899 120.966L389.731 135.647C410.581 157.777 415.44 190.552 401.906 217.778L392.928 235.84C388.195 245.362 385.581 255.795 385.264 266.423L384.664 286.585C383.76 316.976 364.02 343.587 335.198 353.269L316.078 359.693C305.999 363.079 296.772 368.607 289.034 375.899L274.353 389.731C252.223 410.581 219.448 415.44 192.222 401.906L174.16 392.928C164.638 388.195 154.205 385.581 143.577 385.264L123.415 384.664C93.0242 383.76 66.4131 364.02 56.7308 335.198L50.3074 316.078C46.9215 305.999 41.3926 296.772 34.1012 289.034L20.2691 274.353C-0.581171 252.223 -5.43982 219.448 8.09381 192.222L17.072 174.16C21.8048 164.638 24.4193 154.205 24.7356 143.577L25.3356 123.415C26.2401 93.0242 45.98 66.4132 74.8018 56.7308L93.9223 50.3075C104.001 46.9215 113.228 41.3927 120.966 34.1013L135.647 20.2692Z" stroke="white" stroke-opacity="0.2"/>
<defs>
<radialGradient id="paint0_radial_1019_318" cx="0" cy="0" r="1" gradientUnits="userSpaceOnUse" gradientTransform="translate(304.828 319.728) rotate(-154.425) scale(333.831)">
<stop stop-color="#001826"/>
<stop offset="1" stop-opacity="0.46"/>
</radialGradient>
</defs>
</svg>
