<svg width="32" height="40" viewBox="0 0 32 40" fill="none" xmlns="http://www.w3.org/2000/svg">
<mask id="mask0_394_869" style="mask-type:alpha" maskUnits="userSpaceOnUse" x="-8" y="-4" width="48" height="48">
<rect x="-8" y="-4" width="48" height="48" fill="#D9D9D9"/>
</mask>
<g mask="url(#mask0_394_869)">
<path d="M16 18C18.2 18 20.0833 17.2167 21.65 15.65C23.2167 14.0833 24 12.2 24 10V4H8V10C8 12.2 8.78333 14.0833 10.35 15.65C11.9167 17.2167 13.8 18 16 18ZM0 40V36H4V30C4 27.9667 4.475 26.0583 5.425 24.275C6.375 22.4917 7.7 21.0667 9.4 20C7.7 18.9333 6.375 17.5083 5.425 15.725C4.475 13.9417 4 12.0333 4 10V4H0V0H32V4H28V10C28 12.0333 27.525 13.9417 26.575 15.725C25.625 17.5083 24.3 18.9333 22.6 20C24.3 21.0667 25.625 22.4917 26.575 24.275C27.525 26.0583 28 27.9667 28 30V36H32V40H0Z" fill="white"/>
</g>
</svg>
